<?xml version="1.0" encoding="UTF-8" standalone="no" ?>
<!DOCTYPE sesx>
<sesx version="1.9">

  <session appBuild="13.0.12.45" appVersion="13.0" audioChannelType="stereo" bitDepth="24" duration="1440000" sampleRate="48000">
    <tracks>
      <audioTrack automationLaneOpenState="false" id="10001" index="1" select="true" visible="true">
        <trackParameters trackHeight="134" trackHue="160" trackMinimized="false">
          <name>Pista 1</name>
        </trackParameters>
        <trackAudioParameters audioChannelType="stereo" automationMode="1" monitoring="false" recordArmed="false" solo="false" soloSafe="false">
          <trackOutput outputID="10000" type="trackID"/>
          <trackInput inputID="1"/>
          <component componentGuid="87021a6f-8bd5-472b-ae81-6186f501c1ac" componentID="Audition.Fader" id="trackFader" name="volume" powered="true">
            <parameter index="0" name="volume" parameterValue="1"/>
            <parameter index="1" name="static gain" parameterValue="1"/>
          </component>
          <component componentGuid="46484019-111a-44dd-8b9d-e315d34d8dc0" componentID="Audition.Mute" id="trackMute" name="Mute" powered="true">
            <parameter index="0" parameterValue="0"/>
            <parameter index="1" name="mute" parameterValue="0"/>
          </component>
          <component componentGuid="118740e2-f775-4423-85c3-3b082e18e0fa" componentID="Audition.StereoPanner" id="trackPan" name="StereoPanner" powered="true">
            <parameter index="0" name="Panorámica" parameterValue="0"/>
          </component>
          <component componentGuid="ee82d067-965f-420c-a4e9-5c7d9eaa60c1" componentID="Audition.EQ" id="trackEQ" name="EQ" powered="false">
            <parameter index="0" name="Frecuencia estante inferior" parameterValue="0.000834028352983295917510986328125"/>
            <parameter index="1" name="Ganancia estante inferior" parameterValue="0.5"/>
            <parameter index="2" name="Frecuencia estante superior" parameterValue="0.74979150295257568359375"/>
            <parameter index="3" name="Ganancia estante superior" parameterValue="0.5"/>
            <parameter index="4" name="Frecuencia central de banda de EC 1" parameterValue="0.00125104258768260478973388671875"/>
            <parameter index="5" name="Valor Q de banda de EC 1" parameterValue="0.000199989997781813144683837890625"/>
            <parameter index="6" name="Ganancia de banda de EC 1" parameterValue="0.5"/>
            <parameter index="7" name="Activación de banda de EC 1" parameterValue="1"/>
            <parameter index="8" name="Frecuencia central de banda de EC 2" parameterValue="0.0075062550604343414306640625"/>
            <parameter index="9" name="Valor Q de banda de EC 2" parameterValue="0.000199989997781813144683837890625"/>
            <parameter index="10" name="Ganancia de banda de EC 2" parameterValue="0.5"/>
            <parameter index="11" name="Activación de banda de EC 2" parameterValue="1"/>
            <parameter index="12" name="Frecuencia central de banda de EC 3" parameterValue="0.0325271077454090118408203125"/>
            <parameter index="13" name="Valor Q de banda de EC 3" parameterValue="0.000199989997781813144683837890625"/>
            <parameter index="14" name="Ganancia de banda de EC 3" parameterValue="0.5"/>
            <parameter index="15" name="Activación de banda de EC 3" parameterValue="1"/>
            <parameter index="16" name="Frecuencia central de banda de EC 4" parameterValue="0.13261051476001739501953125"/>
            <parameter index="17" name="Valor Q de banda de EC 4" parameterValue="0.000199989997781813144683837890625"/>
            <parameter index="18" name="Ganancia de banda de EC 4" parameterValue="0.5"/>
            <parameter index="19" name="Activación de banda de EC 4" parameterValue="1"/>
            <parameter index="20" name="Frecuencia central de banda de EC 5" parameterValue="0.532944142818450927734375"/>
            <parameter index="21" name="Valor Q de banda de EC 5" parameterValue="0.000199989997781813144683837890625"/>
            <parameter index="22" name="Ganancia de banda de EC 5" parameterValue="0.5"/>
            <parameter index="23" name="Activación de banda de EC 5" parameterValue="1"/>
            <parameter index="24" name="Ganancia maestra" parameterValue="0.666666686534881591796875"/>
            <parameter index="25" name="Constant Q" parameterValue="1"/>
            <parameter index="26" name="Orden de filtro de estante inferior" parameterValue="0"/>
            <parameter index="27" name="Orden de filtro de estante superior" parameterValue="0"/>
            <parameter index="28" name="Modo ultrasilencioso" parameterValue="0"/>
            <parameter index="29" name="Activar estante inferior" parameterValue="1"/>
            <parameter index="30" name="Activar estante superior" parameterValue="1"/>
            <parameter index="31" name="Velocidad de muestreo original" parameterValue="0.25"/>
            <parameter index="32" name="Ancho de banda de EC 1" parameterValue="0.002499990165233612060546875"/>
            <parameter index="33" name="Ancho de banda de EC 2" parameterValue="0.0099999904632568359375"/>
            <parameter index="34" name="Ancho de banda de EC 3" parameterValue="0.0399999916553497314453125"/>
            <parameter index="35" name="Ancho de banda de EC 4" parameterValue="0.15999998152256011962890625"/>
            <parameter index="36" name="Ancho de banda de EC 5" parameterValue="0.63999998569488525390625"/>
            <parameter index="37" name="Activación de filtro de pase alto" parameterValue="0"/>
            <parameter index="38" name="Frecuencia de límite de paso alto" parameterValue="0"/>
            <parameter index="39" name="Pendiente de paso alto" parameterValue="0.4000000059604644775390625"/>
            <parameter index="40" name="Activación de filtro de pase bajo" parameterValue="0"/>
            <parameter index="41" name="Frecuencia de límite de paso bajo" parameterValue="0.833194315433502197265625"/>
            <parameter index="42" name="Pendiente de paso bajo" parameterValue="0.4000000059604644775390625"/>
            <parameter index="43" name="Derivar" parameterValue="0"/>
            <parameter index="44" name="Rango de gráfico bajo" parameterValue="1"/>
          </component>
        </trackAudioParameters>
        <editParameter parameterIndex="0" slotIndex="4294967280"/>
        <audioClip clipAutoCrossfade="true" crossFadeHeadClipID="-1" crossFadeTailClipID="-1" endPoint="376320" fileID="0" hue="-1" id="0" lockedInTime="false" looped="false" name="Secuencia 02" offline="false" select="true" sourceInPoint="0" sourceOutPoint="376320" startPoint="0" zOrder="1">
          <component componentGuid="7dd8144f-a553-4f86-a849-7f5bf02f76e7" componentID="Audition.Fader" id="clipGain" name="volume" powered="true">
            <parameter index="0" name="volume" parameterValue="1"/>
            <parameter index="1" name="static gain" parameterValue="1"/>
          </component>
          <component componentGuid="1a8bb5a6-6d6a-4f4f-8d30-1814b38d6fbd" componentID="Audition.Mute" id="clipMute" name="Mute" powered="true">
            <parameter index="0" parameterValue="0"/>
            <parameter index="1" name="mute" parameterValue="0"/>
          </component>
          <component componentGuid="f2b82c95-d048-43b5-b9ce-9210c10a5325" componentID="Audition.StereoPanner" id="clipPan" name="StereoPanner" powered="true">
            <parameter index="0" name="Panorámica" parameterValue="0"/>
          </component>
          <fadeIn crossFadeLinkType="linkedAsymmetric" endPoint="0" shape="19" startPoint="0" type="log"/>
          <fadeOut crossFadeLinkType="linkedAsymmetric" endPoint="376320" shape="0" startPoint="376320" type="cosine"/>
          <editParameter parameterIndex="0" slotIndex="4294967280"/>
          <editParameter parameterIndex="0" slotIndex="4294967281"/>
          <channelMap>
            <channel index="0" sourceIndex="0"/>
            <channel index="1" sourceIndex="1"/>
          </channelMap>
        </audioClip>
        <audioClip clipAutoCrossfade="true" crossFadeHeadClipID="-1" crossFadeTailClipID="-1" endPoint="72360" fileID="1" hue="-1" id="1" lockedInTime="false" looped="false" name="sm64_stomp 48000 1" offline="false" select="true" sourceInPoint="0" sourceOutPoint="37320" startPoint="35040" zOrder="0">
          <component componentGuid="81c61a59-2b40-40c8-b37c-de0aa0b26f49" componentID="Audition.Fader" id="clipGain" name="volume" powered="true">
            <parameter index="0" name="volume" parameterValue="1"/>
            <parameter index="1" name="static gain" parameterValue="1"/>
          </component>
          <component componentGuid="32b0a120-ae42-483f-b8e9-753705c851b2" componentID="Audition.Mute" id="clipMute" name="Mute" powered="true">
            <parameter index="0" parameterValue="0"/>
            <parameter index="1" name="mute" parameterValue="0"/>
          </component>
          <component componentGuid="6e5c58f3-d455-44f3-893b-30cf64361455" componentID="Audition.StereoPanner" id="clipPan" name="StereoPanner" powered="true">
            <parameter index="0" name="Panorámica" parameterValue="0"/>
          </component>
          <fadeIn crossFadeLinkType="linkedAsymmetric" endPoint="0" shape="0" startPoint="0" type="cosine"/>
          <fadeOut crossFadeLinkType="linkedAsymmetric" endPoint="37320" shape="18" startPoint="37320" type="log"/>
          <editParameter parameterIndex="0" slotIndex="4294967280"/>
          <editParameter parameterIndex="0" slotIndex="4294967281"/>
          <channelMap>
            <channel index="0" sourceIndex="0"/>
          </channelMap>
        </audioClip>
      </audioTrack>
      <audioTrack automationLaneOpenState="false" id="10002" index="2" select="false" visible="true">
        <trackParameters trackHeight="134" trackHue="267" trackMinimized="false">
          <name>Pista 2</name>
        </trackParameters>
        <trackAudioParameters audioChannelType="stereo" automationMode="1" monitoring="false" recordArmed="false" solo="false" soloSafe="false">
          <trackOutput outputID="10000" type="trackID"/>
          <trackInput inputID="1"/>
          <component componentGuid="e2b6501b-73fc-46bc-a987-d7c69cd11b2f" componentID="Audition.Fader" id="trackFader" name="volume" powered="true">
            <parameter index="0" name="volume" parameterValue="1"/>
            <parameter index="1" name="static gain" parameterValue="1"/>
          </component>
          <component componentGuid="666c08cf-7aaa-4df9-9513-937983ef4517" componentID="Audition.Mute" id="trackMute" name="Mute" powered="true">
            <parameter index="0" parameterValue="0"/>
            <parameter index="1" name="mute" parameterValue="0"/>
          </component>
          <component componentGuid="6f06226f-fd69-472f-95af-348b0bb393a0" componentID="Audition.StereoPanner" id="trackPan" name="StereoPanner" powered="true">
            <parameter index="0" name="Panorámica" parameterValue="0"/>
          </component>
          <component componentGuid="05cc9a86-f7b4-4d7f-b8b0-4c6993caa3e1" componentID="Audition.EQ" id="trackEQ" name="EQ" powered="false">
            <parameter index="0" name="Frecuencia estante inferior" parameterValue="0.000834028352983295917510986328125"/>
            <parameter index="1" name="Ganancia estante inferior" parameterValue="0.5"/>
            <parameter index="2" name="Frecuencia estante superior" parameterValue="0.74979150295257568359375"/>
            <parameter index="3" name="Ganancia estante superior" parameterValue="0.5"/>
            <parameter index="4" name="Frecuencia central de banda de EC 1" parameterValue="0.00125104258768260478973388671875"/>
            <parameter index="5" name="Valor Q de banda de EC 1" parameterValue="0.000199989997781813144683837890625"/>
            <parameter index="6" name="Ganancia de banda de EC 1" parameterValue="0.5"/>
            <parameter index="7" name="Activación de banda de EC 1" parameterValue="1"/>
            <parameter index="8" name="Frecuencia central de banda de EC 2" parameterValue="0.0075062550604343414306640625"/>
            <parameter index="9" name="Valor Q de banda de EC 2" parameterValue="0.000199989997781813144683837890625"/>
            <parameter index="10" name="Ganancia de banda de EC 2" parameterValue="0.5"/>
            <parameter index="11" name="Activación de banda de EC 2" parameterValue="1"/>
            <parameter index="12" name="Frecuencia central de banda de EC 3" parameterValue="0.0325271077454090118408203125"/>
            <parameter index="13" name="Valor Q de banda de EC 3" parameterValue="0.000199989997781813144683837890625"/>
            <parameter index="14" name="Ganancia de banda de EC 3" parameterValue="0.5"/>
            <parameter index="15" name="Activación de banda de EC 3" parameterValue="1"/>
            <parameter index="16" name="Frecuencia central de banda de EC 4" parameterValue="0.13261051476001739501953125"/>
            <parameter index="17" name="Valor Q de banda de EC 4" parameterValue="0.000199989997781813144683837890625"/>
            <parameter index="18" name="Ganancia de banda de EC 4" parameterValue="0.5"/>
            <parameter index="19" name="Activación de banda de EC 4" parameterValue="1"/>
            <parameter index="20" name="Frecuencia central de banda de EC 5" parameterValue="0.532944142818450927734375"/>
            <parameter index="21" name="Valor Q de banda de EC 5" parameterValue="0.000199989997781813144683837890625"/>
            <parameter index="22" name="Ganancia de banda de EC 5" parameterValue="0.5"/>
            <parameter index="23" name="Activación de banda de EC 5" parameterValue="1"/>
            <parameter index="24" name="Ganancia maestra" parameterValue="0.666666686534881591796875"/>
            <parameter index="25" name="Constant Q" parameterValue="1"/>
            <parameter index="26" name="Orden de filtro de estante inferior" parameterValue="0"/>
            <parameter index="27" name="Orden de filtro de estante superior" parameterValue="0"/>
            <parameter index="28" name="Modo ultrasilencioso" parameterValue="0"/>
            <parameter index="29" name="Activar estante inferior" parameterValue="1"/>
            <parameter index="30" name="Activar estante superior" parameterValue="1"/>
            <parameter index="31" name="Velocidad de muestreo original" parameterValue="0.25"/>
            <parameter index="32" name="Ancho de banda de EC 1" parameterValue="0.002499990165233612060546875"/>
            <parameter index="33" name="Ancho de banda de EC 2" parameterValue="0.0099999904632568359375"/>
            <parameter index="34" name="Ancho de banda de EC 3" parameterValue="0.0399999916553497314453125"/>
            <parameter index="35" name="Ancho de banda de EC 4" parameterValue="0.15999998152256011962890625"/>
            <parameter index="36" name="Ancho de banda de EC 5" parameterValue="0.63999998569488525390625"/>
            <parameter index="37" name="Activación de filtro de pase alto" parameterValue="0"/>
            <parameter index="38" name="Frecuencia de límite de paso alto" parameterValue="0"/>
            <parameter index="39" name="Pendiente de paso alto" parameterValue="0.4000000059604644775390625"/>
            <parameter index="40" name="Activación de filtro de pase bajo" parameterValue="0"/>
            <parameter index="41" name="Frecuencia de límite de paso bajo" parameterValue="0.833194315433502197265625"/>
            <parameter index="42" name="Pendiente de paso bajo" parameterValue="0.4000000059604644775390625"/>
            <parameter index="43" name="Derivar" parameterValue="0"/>
            <parameter index="44" name="Rango de gráfico bajo" parameterValue="1"/>
          </component>
        </trackAudioParameters>
        <editParameter parameterIndex="0" slotIndex="4294967280"/>
        <audioClip clipAutoCrossfade="true" crossFadeHeadClipID="-1" crossFadeTailClipID="-1" endPoint="54588" fileID="1" hue="-1" id="0" lockedInTime="false" looped="false" name="sm64_stomp 48000 1" offline="false" select="true" sourceInPoint="0" sourceOutPoint="7933" startPoint="46655" zOrder="0">
          <component componentGuid="31fc657f-7663-48e8-8712-0c5b80146a03" componentID="Audition.Fader" id="clipGain" name="volume" powered="true">
            <parameter index="0" name="volume" parameterValue="1"/>
            <parameter index="1" name="static gain" parameterValue="1"/>
          </component>
          <component componentGuid="5ab89c6d-46ae-48f9-8514-d55e272c37c5" componentID="Audition.Mute" id="clipMute" name="Mute" powered="true">
            <parameter index="0" parameterValue="0"/>
            <parameter index="1" name="mute" parameterValue="0"/>
          </component>
          <component componentGuid="4002e39d-f8ce-4d0a-b2ba-1bd5035c6396" componentID="Audition.StereoPanner" id="clipPan" name="StereoPanner" powered="true">
            <parameter index="0" name="Panorámica" parameterValue="0">
              <parameterKeyframes enableSplines="false" readOnly="false">
                <parameterKeyframe sampleOffset="0" select="true" type="linear" value="0.5"/>
                <parameterKeyframe sampleOffset="6782" select="false" type="linear" value="0.5"/>
              </parameterKeyframes>
            </parameter>
          </component>
          <fadeIn crossFadeLinkType="linkedAsymmetric" endPoint="0" shape="19" startPoint="0" type="log"/>
          <fadeOut crossFadeLinkType="linkedAsymmetric" endPoint="7933" shape="19" startPoint="7933" type="log"/>
          <editParameter parameterIndex="0" slotIndex="4294967280"/>
          <editParameter parameterIndex="0" slotIndex="4294967281"/>
          <channelMap>
            <channel index="0" sourceIndex="0"/>
          </channelMap>
        </audioClip>
        <audioClip clipAutoCrossfade="true" crossFadeHeadClipID="-1" crossFadeTailClipID="-1" endPoint="62521" fileID="1" hue="-1" id="1" lockedInTime="false" looped="false" name="sm64_stomp 48000 1" offline="false" select="true" sourceInPoint="0" sourceOutPoint="7933" startPoint="54588" zOrder="1">
          <component componentGuid="65ea2d17-ee13-42dc-ad19-33d8ff51bb34" componentID="Audition.Fader" id="clipGain" name="volume" powered="true">
            <parameter index="0" name="volume" parameterValue="1"/>
            <parameter index="1" name="static gain" parameterValue="1"/>
          </component>
          <component componentGuid="14cd2a65-d398-4bbf-98bc-d811749089e5" componentID="Audition.Mute" id="clipMute" name="Mute" powered="true">
            <parameter index="0" parameterValue="0"/>
            <parameter index="1" name="mute" parameterValue="0"/>
          </component>
          <component componentGuid="7414d1d4-b52d-4517-8a10-34c60a0270d6" componentID="Audition.StereoPanner" id="clipPan" name="StereoPanner" powered="true">
            <parameter index="0" name="Panorámica" parameterValue="0">
              <parameterKeyframes enableSplines="false" readOnly="false">
                <parameterKeyframe sampleOffset="6782" select="false" type="linear" value="0.5"/>
              </parameterKeyframes>
            </parameter>
          </component>
          <fadeIn crossFadeLinkType="linkedAsymmetric" endPoint="0" shape="19" startPoint="0" type="log"/>
          <fadeOut crossFadeLinkType="linkedAsymmetric" endPoint="7933" shape="19" startPoint="7933" type="log"/>
          <editParameter parameterIndex="0" slotIndex="4294967281"/>
          <editParameter parameterIndex="0" slotIndex="4294967280"/>
          <channelMap>
            <channel index="0" sourceIndex="0"/>
          </channelMap>
        </audioClip>
        <audioClip clipAutoCrossfade="true" crossFadeHeadClipID="-1" crossFadeTailClipID="-1" endPoint="70454" fileID="1" hue="-1" id="2" lockedInTime="false" looped="false" name="sm64_stomp 48000 1" offline="false" select="true" sourceInPoint="0" sourceOutPoint="7933" startPoint="62521" zOrder="2">
          <component componentGuid="a77c7e65-28b0-4704-a639-7e1eaaf971f2" componentID="Audition.Fader" id="clipGain" name="volume" powered="true">
            <parameter index="0" name="volume" parameterValue="1"/>
            <parameter index="1" name="static gain" parameterValue="1"/>
          </component>
          <component componentGuid="8b05916c-1a50-4cc5-893e-939b1b445f18" componentID="Audition.Mute" id="clipMute" name="Mute" powered="true">
            <parameter index="0" parameterValue="0"/>
            <parameter index="1" name="mute" parameterValue="0"/>
          </component>
          <component componentGuid="79317a39-3916-40d9-9de4-7b8d76718640" componentID="Audition.StereoPanner" id="clipPan" name="StereoPanner" powered="true">
            <parameter index="0" name="Panorámica" parameterValue="0">
              <parameterKeyframes enableSplines="false" readOnly="false">
                <parameterKeyframe sampleOffset="6782" select="false" type="linear" value="0.5"/>
              </parameterKeyframes>
            </parameter>
          </component>
          <fadeIn crossFadeLinkType="linkedAsymmetric" endPoint="0" shape="19" startPoint="0" type="log"/>
          <fadeOut crossFadeLinkType="linkedAsymmetric" endPoint="7933" shape="19" startPoint="7933" type="log"/>
          <editParameter parameterIndex="0" slotIndex="4294967280"/>
          <editParameter parameterIndex="0" slotIndex="4294967281"/>
          <channelMap>
            <channel index="0" sourceIndex="0"/>
          </channelMap>
        </audioClip>
        <audioClip clipAutoCrossfade="true" crossFadeHeadClipID="-1" crossFadeTailClipID="4" endPoint="78387" fileID="1" hue="-1" id="3" lockedInTime="false" looped="false" name="sm64_stomp 48000 1" offline="false" select="true" sourceInPoint="0" sourceOutPoint="7933" startPoint="70454" zOrder="3">
          <component componentGuid="4fcb365e-f32b-467d-ae2f-28957633cf7c" componentID="Audition.Fader" id="clipGain" name="volume" powered="true">
            <parameter index="0" name="volume" parameterValue="1"/>
            <parameter index="1" name="static gain" parameterValue="1"/>
          </component>
          <component componentGuid="09ba3ac7-72ae-4452-bd34-7bdd94d0a085" componentID="Audition.Mute" id="clipMute" name="Mute" powered="true">
            <parameter index="0" parameterValue="0"/>
            <parameter index="1" name="mute" parameterValue="0"/>
          </component>
          <component componentGuid="976af9d5-c255-47ea-b27d-028d04f56ae3" componentID="Audition.StereoPanner" id="clipPan" name="StereoPanner" powered="true">
            <parameter index="0" name="Panorámica" parameterValue="0">
              <parameterKeyframes enableSplines="false" readOnly="false">
                <parameterKeyframe sampleOffset="6782" select="false" type="linear" value="0.5"/>
              </parameterKeyframes>
            </parameter>
          </component>
          <fadeIn crossFadeLinkType="linkedAsymmetric" endPoint="0" shape="19" startPoint="0" type="log"/>
          <fadeOut crossFadeLinkType="linkedAsymmetric" endPoint="7933" shape="19" startPoint="7588" type="log"/>
          <editParameter parameterIndex="0" slotIndex="4294967281"/>
          <editParameter parameterIndex="0" slotIndex="4294967280"/>
          <channelMap>
            <channel index="0" sourceIndex="0"/>
          </channelMap>
        </audioClip>
        <audioClip clipAutoCrossfade="true" crossFadeHeadClipID="3" crossFadeTailClipID="5" endPoint="85975" fileID="1" hue="-1" id="4" lockedInTime="false" looped="false" name="sm64_stomp 48000 1" offline="false" select="true" sourceInPoint="0" sourceOutPoint="7933" startPoint="78042" zOrder="4">
          <component componentGuid="87e0e09a-eb4b-4ab0-ace6-11ca41e77b07" componentID="Audition.Fader" id="clipGain" name="volume" powered="true">
            <parameter index="0" name="volume" parameterValue="1"/>
            <parameter index="1" name="static gain" parameterValue="1"/>
          </component>
          <component componentGuid="8dbc4a8c-f62c-4e77-94d2-6a38c4f5e2d8" componentID="Audition.Mute" id="clipMute" name="Mute" powered="true">
            <parameter index="0" parameterValue="0"/>
            <parameter index="1" name="mute" parameterValue="0"/>
          </component>
          <component componentGuid="610bf651-4736-4583-bf2a-c91da87501ce" componentID="Audition.StereoPanner" id="clipPan" name="StereoPanner" powered="true">
            <parameter index="0" name="Panorámica" parameterValue="0">
              <parameterKeyframes enableSplines="false" readOnly="false">
                <parameterKeyframe sampleOffset="6782" select="false" type="linear" value="0.5"/>
              </parameterKeyframes>
            </parameter>
          </component>
          <fadeIn crossFadeLinkType="linkedAsymmetric" endPoint="345" shape="18" startPoint="0" type="log"/>
          <fadeOut crossFadeLinkType="linkedAsymmetric" endPoint="7933" shape="19" startPoint="7852" type="log"/>
          <editParameter parameterIndex="0" slotIndex="4294967281"/>
          <editParameter parameterIndex="0" slotIndex="4294967280"/>
          <channelMap>
            <channel index="0" sourceIndex="0"/>
          </channelMap>
        </audioClip>
        <audioClip clipAutoCrossfade="true" crossFadeHeadClipID="4" crossFadeTailClipID="-1" endPoint="93827" fileID="1" hue="-1" id="5" lockedInTime="false" looped="false" name="sm64_stomp 48000 1" offline="false" select="true" sourceInPoint="0" sourceOutPoint="7933" startPoint="85894" zOrder="5">
          <component componentGuid="9e14edb4-df0e-40e4-868b-b0bf768251ad" componentID="Audition.Fader" id="clipGain" name="volume" powered="true">
            <parameter index="0" name="volume" parameterValue="1"/>
            <parameter index="1" name="static gain" parameterValue="1"/>
          </component>
          <component componentGuid="c2a8c3f8-00fd-4c91-a082-595447248e2f" componentID="Audition.Mute" id="clipMute" name="Mute" powered="true">
            <parameter index="0" parameterValue="0"/>
            <parameter index="1" name="mute" parameterValue="0"/>
          </component>
          <component componentGuid="6e733ebe-d18b-4c5e-8b32-b17884cfe636" componentID="Audition.StereoPanner" id="clipPan" name="StereoPanner" powered="true">
            <parameter index="0" name="Panorámica" parameterValue="0">
              <parameterKeyframes enableSplines="false" readOnly="false">
                <parameterKeyframe sampleOffset="6782" select="false" type="linear" value="0.5"/>
              </parameterKeyframes>
            </parameter>
          </component>
          <fadeIn crossFadeLinkType="linkedAsymmetric" endPoint="81" shape="18" startPoint="0" type="log"/>
          <fadeOut crossFadeLinkType="linkedAsymmetric" endPoint="7933" shape="19" startPoint="7933" type="log"/>
          <editParameter parameterIndex="0" slotIndex="4294967281"/>
          <editParameter parameterIndex="0" slotIndex="4294967280"/>
          <channelMap>
            <channel index="0" sourceIndex="0"/>
          </channelMap>
        </audioClip>
        <audioClip clipAutoCrossfade="true" crossFadeHeadClipID="-1" crossFadeTailClipID="7" endPoint="101908" fileID="1" hue="-1" id="6" lockedInTime="false" looped="false" name="sm64_stomp 48000 1" offline="false" select="true" sourceInPoint="0" sourceOutPoint="7933" startPoint="93975" zOrder="7">
          <component componentGuid="b183d81e-77be-4470-a25e-9734f08472fe" componentID="Audition.Fader" id="clipGain" name="volume" powered="true">
            <parameter index="0" name="volume" parameterValue="1"/>
            <parameter index="1" name="static gain" parameterValue="1"/>
          </component>
          <component componentGuid="928f3085-2cc3-4e60-b924-486eb1150d4b" componentID="Audition.Mute" id="clipMute" name="Mute" powered="true">
            <parameter index="0" parameterValue="0"/>
            <parameter index="1" name="mute" parameterValue="0"/>
          </component>
          <component componentGuid="6573c059-f15f-4216-b6a2-4e0dd7f05ddb" componentID="Audition.StereoPanner" id="clipPan" name="StereoPanner" powered="true">
            <parameter index="0" name="Panorámica" parameterValue="0">
              <parameterKeyframes enableSplines="false" readOnly="false">
                <parameterKeyframe sampleOffset="6782" select="false" type="linear" value="0.5"/>
              </parameterKeyframes>
            </parameter>
          </component>
          <fadeIn crossFadeLinkType="linkedAsymmetric" endPoint="0" shape="19" startPoint="0" type="log"/>
          <fadeOut crossFadeLinkType="linkedAsymmetric" endPoint="7933" shape="18" startPoint="7735" type="log"/>
          <editParameter parameterIndex="0" slotIndex="4294967281"/>
          <editParameter parameterIndex="0" slotIndex="4294967280"/>
          <channelMap>
            <channel index="0" sourceIndex="0"/>
          </channelMap>
        </audioClip>
        <audioClip clipAutoCrossfade="true" crossFadeHeadClipID="6" crossFadeTailClipID="-1" endPoint="109643" fileID="1" hue="-1" id="7" lockedInTime="false" looped="false" name="sm64_stomp 48000 1" offline="false" select="true" sourceInPoint="0" sourceOutPoint="7933" startPoint="101710" zOrder="6">
          <component componentGuid="c168874f-6c0e-4941-bbf8-966065fa2a34" componentID="Audition.Fader" id="clipGain" name="volume" powered="true">
            <parameter index="0" name="volume" parameterValue="1"/>
            <parameter index="1" name="static gain" parameterValue="1"/>
          </component>
          <component componentGuid="9f4fcf0d-f38f-47af-bca4-cd41e6dd14c5" componentID="Audition.Mute" id="clipMute" name="Mute" powered="true">
            <parameter index="0" parameterValue="0"/>
            <parameter index="1" name="mute" parameterValue="0"/>
          </component>
          <component componentGuid="fc079036-275d-484c-a016-0a52ac2daa7e" componentID="Audition.StereoPanner" id="clipPan" name="StereoPanner" powered="true">
            <parameter index="0" name="Panorámica" parameterValue="0">
              <parameterKeyframes enableSplines="false" readOnly="false">
                <parameterKeyframe sampleOffset="6782" select="false" type="linear" value="0.5"/>
              </parameterKeyframes>
            </parameter>
          </component>
          <fadeIn crossFadeLinkType="linkedAsymmetric" endPoint="198" shape="19" startPoint="0" type="log"/>
          <fadeOut crossFadeLinkType="linkedAsymmetric" endPoint="7933" shape="19" startPoint="7933" type="log"/>
          <editParameter parameterIndex="0" slotIndex="4294967281"/>
          <editParameter parameterIndex="0" slotIndex="4294967280"/>
          <channelMap>
            <channel index="0" sourceIndex="0"/>
          </channelMap>
        </audioClip>
        <audioClip clipAutoCrossfade="true" crossFadeHeadClipID="-1" crossFadeTailClipID="9" endPoint="117576" fileID="1" hue="-1" id="8" lockedInTime="false" looped="false" name="sm64_stomp 48000 1" offline="false" select="true" sourceInPoint="0" sourceOutPoint="7933" startPoint="109643" zOrder="8">
          <component componentGuid="c36aead1-f885-4595-be65-af5031335a76" componentID="Audition.Fader" id="clipGain" name="volume" powered="true">
            <parameter index="0" name="volume" parameterValue="1"/>
            <parameter index="1" name="static gain" parameterValue="1"/>
          </component>
          <component componentGuid="760dbf33-0646-4c15-82da-2f38dda2b225" componentID="Audition.Mute" id="clipMute" name="Mute" powered="true">
            <parameter index="0" parameterValue="0"/>
            <parameter index="1" name="mute" parameterValue="0"/>
          </component>
          <component componentGuid="0c54564f-b960-4579-a39f-d2328f419883" componentID="Audition.StereoPanner" id="clipPan" name="StereoPanner" powered="true">
            <parameter index="0" name="Panorámica" parameterValue="0">
              <parameterKeyframes enableSplines="false" readOnly="false">
                <parameterKeyframe sampleOffset="6782" select="false" type="linear" value="0.5"/>
              </parameterKeyframes>
            </parameter>
          </component>
          <fadeIn crossFadeLinkType="linkedAsymmetric" endPoint="0" shape="19" startPoint="0" type="log"/>
          <fadeOut crossFadeLinkType="linkedAsymmetric" endPoint="7933" shape="18" startPoint="7850" type="log"/>
          <editParameter parameterIndex="0" slotIndex="4294967281"/>
          <editParameter parameterIndex="0" slotIndex="4294967280"/>
          <channelMap>
            <channel index="0" sourceIndex="0"/>
          </channelMap>
        </audioClip>
        <audioClip clipAutoCrossfade="true" crossFadeHeadClipID="8" crossFadeTailClipID="-1" endPoint="125426" fileID="1" hue="-1" id="9" lockedInTime="false" looped="false" name="sm64_stomp 48000 1" offline="false" select="true" sourceInPoint="0" sourceOutPoint="7933" startPoint="117493" zOrder="9">
          <component componentGuid="6d905186-6ccd-40f4-bde0-28d3bf80423b" componentID="Audition.Fader" id="clipGain" name="volume" powered="true">
            <parameter index="0" name="volume" parameterValue="1"/>
            <parameter index="1" name="static gain" parameterValue="1"/>
          </component>
          <component componentGuid="e655b881-9d65-4876-8b46-2a9ff0ef5ec3" componentID="Audition.Mute" id="clipMute" name="Mute" powered="true">
            <parameter index="0" parameterValue="0"/>
            <parameter index="1" name="mute" parameterValue="0"/>
          </component>
          <component componentGuid="be973868-73cd-411c-863e-16ce6fd4d278" componentID="Audition.StereoPanner" id="clipPan" name="StereoPanner" powered="true">
            <parameter index="0" name="Panorámica" parameterValue="0">
              <parameterKeyframes enableSplines="false" readOnly="false">
                <parameterKeyframe sampleOffset="6782" select="false" type="linear" value="0.5"/>
              </parameterKeyframes>
            </parameter>
          </component>
          <fadeIn crossFadeLinkType="linkedAsymmetric" endPoint="83" shape="19" startPoint="0" type="log"/>
          <fadeOut crossFadeLinkType="linkedAsymmetric" endPoint="7933" shape="19" startPoint="7933" type="log"/>
          <editParameter parameterIndex="0" slotIndex="4294967281"/>
          <editParameter parameterIndex="0" slotIndex="4294967280"/>
          <channelMap>
            <channel index="0" sourceIndex="0"/>
          </channelMap>
        </audioClip>
        <audioClip clipAutoCrossfade="true" crossFadeHeadClipID="-1" crossFadeTailClipID="11" endPoint="133359" fileID="1" hue="-1" id="10" lockedInTime="false" looped="false" name="sm64_stomp 48000 1" offline="false" select="true" sourceInPoint="0" sourceOutPoint="7933" startPoint="125426" zOrder="10">
          <component componentGuid="0ba785a6-dff0-4af7-849c-f000a5b6ea4f" componentID="Audition.Fader" id="clipGain" name="volume" powered="true">
            <parameter index="0" name="volume" parameterValue="1"/>
            <parameter index="1" name="static gain" parameterValue="1"/>
          </component>
          <component componentGuid="9df86d77-b92e-4742-8c9e-20ce5bbb0d26" componentID="Audition.Mute" id="clipMute" name="Mute" powered="true">
            <parameter index="0" parameterValue="0"/>
            <parameter index="1" name="mute" parameterValue="0"/>
          </component>
          <component componentGuid="dee6f177-ae13-4d93-bca5-c7841f2997c2" componentID="Audition.StereoPanner" id="clipPan" name="StereoPanner" powered="true">
            <parameter index="0" name="Panorámica" parameterValue="0">
              <parameterKeyframes enableSplines="false" readOnly="false">
                <parameterKeyframe sampleOffset="6782" select="false" type="linear" value="0.5"/>
              </parameterKeyframes>
            </parameter>
          </component>
          <fadeIn crossFadeLinkType="linkedAsymmetric" endPoint="0" shape="18" startPoint="0" type="log"/>
          <fadeOut crossFadeLinkType="linkedAsymmetric" endPoint="7933" shape="18" startPoint="7850" type="log"/>
          <editParameter parameterIndex="0" slotIndex="4294967281"/>
          <editParameter parameterIndex="0" slotIndex="4294967280"/>
          <channelMap>
            <channel index="0" sourceIndex="0"/>
          </channelMap>
        </audioClip>
        <audioClip clipAutoCrossfade="true" crossFadeHeadClipID="10" crossFadeTailClipID="12" endPoint="141209" fileID="1" hue="-1" id="11" lockedInTime="false" looped="false" name="sm64_stomp 48000 1" offline="false" select="true" sourceInPoint="0" sourceOutPoint="7933" startPoint="133276" zOrder="11">
          <component componentGuid="d4e58639-5664-4ae2-b8f7-7264708f4ba0" componentID="Audition.Fader" id="clipGain" name="volume" powered="true">
            <parameter index="0" name="volume" parameterValue="1"/>
            <parameter index="1" name="static gain" parameterValue="1"/>
          </component>
          <component componentGuid="1699d7a1-1502-4bd2-bdb6-ddd251d3723c" componentID="Audition.Mute" id="clipMute" name="Mute" powered="true">
            <parameter index="0" parameterValue="0"/>
            <parameter index="1" name="mute" parameterValue="0"/>
          </component>
          <component componentGuid="b6890858-ba3a-4223-b1e9-fe70c1fb8b3c" componentID="Audition.StereoPanner" id="clipPan" name="StereoPanner" powered="true">
            <parameter index="0" name="Panorámica" parameterValue="0">
              <parameterKeyframes enableSplines="false" readOnly="false">
                <parameterKeyframe sampleOffset="6782" select="false" type="linear" value="0.5"/>
              </parameterKeyframes>
            </parameter>
          </component>
          <fadeIn crossFadeLinkType="linkedAsymmetric" endPoint="83" shape="19" startPoint="0" type="log"/>
          <fadeOut crossFadeLinkType="linkedAsymmetric" endPoint="7933" shape="19" startPoint="7738" type="log"/>
          <editParameter parameterIndex="0" slotIndex="4294967281"/>
          <editParameter parameterIndex="0" slotIndex="4294967280"/>
          <channelMap>
            <channel index="0" sourceIndex="0"/>
          </channelMap>
        </audioClip>
        <audioClip clipAutoCrossfade="true" crossFadeHeadClipID="11" crossFadeTailClipID="13" endPoint="148947" fileID="1" hue="-1" id="12" lockedInTime="false" looped="false" name="sm64_stomp 48000 1" offline="false" select="true" sourceInPoint="0" sourceOutPoint="7933" startPoint="141014" zOrder="15">
          <component componentGuid="7fc367fd-9b33-4238-8f54-34ce47528055" componentID="Audition.Fader" id="clipGain" name="volume" powered="true">
            <parameter index="0" name="volume" parameterValue="1"/>
            <parameter index="1" name="static gain" parameterValue="1"/>
          </component>
          <component componentGuid="d212f3d4-d1c9-4fc7-8bd9-c4bce72839c5" componentID="Audition.Mute" id="clipMute" name="Mute" powered="true">
            <parameter index="0" parameterValue="0"/>
            <parameter index="1" name="mute" parameterValue="0"/>
          </component>
          <component componentGuid="2637319e-74c1-46eb-8372-95af7abe1529" componentID="Audition.StereoPanner" id="clipPan" name="StereoPanner" powered="true">
            <parameter index="0" name="Panorámica" parameterValue="0">
              <parameterKeyframes enableSplines="false" readOnly="false">
                <parameterKeyframe sampleOffset="6782" select="false" type="linear" value="0.5"/>
              </parameterKeyframes>
            </parameter>
          </component>
          <fadeIn crossFadeLinkType="linkedAsymmetric" endPoint="195" shape="18" startPoint="0" type="log"/>
          <fadeOut crossFadeLinkType="linkedAsymmetric" endPoint="7933" shape="18" startPoint="7735" type="log"/>
          <editParameter parameterIndex="0" slotIndex="4294967281"/>
          <editParameter parameterIndex="0" slotIndex="4294967280"/>
          <channelMap>
            <channel index="0" sourceIndex="0"/>
          </channelMap>
        </audioClip>
        <audioClip clipAutoCrossfade="true" crossFadeHeadClipID="12" crossFadeTailClipID="14" endPoint="156682" fileID="1" hue="-1" id="13" lockedInTime="false" looped="false" name="sm64_stomp 48000 1" offline="false" select="true" sourceInPoint="0" sourceOutPoint="7933" startPoint="148749" zOrder="17">
          <component componentGuid="083509d2-307e-4392-8c3e-cafca75f2cbc" componentID="Audition.Fader" id="clipGain" name="volume" powered="true">
            <parameter index="0" name="volume" parameterValue="1"/>
            <parameter index="1" name="static gain" parameterValue="1"/>
          </component>
          <component componentGuid="31c251b2-c9f2-48e0-95b7-4914f8fd6ac1" componentID="Audition.Mute" id="clipMute" name="Mute" powered="true">
            <parameter index="0" parameterValue="0"/>
            <parameter index="1" name="mute" parameterValue="0"/>
          </component>
          <component componentGuid="79616ebf-394b-441b-8701-88de4ee519bb" componentID="Audition.StereoPanner" id="clipPan" name="StereoPanner" powered="true">
            <parameter index="0" name="Panorámica" parameterValue="0">
              <parameterKeyframes enableSplines="false" readOnly="false">
                <parameterKeyframe sampleOffset="6782" select="false" type="linear" value="0.5"/>
              </parameterKeyframes>
            </parameter>
          </component>
          <fadeIn crossFadeLinkType="linkedAsymmetric" endPoint="198" shape="19" startPoint="0" type="log"/>
          <fadeOut crossFadeLinkType="linkedAsymmetric" endPoint="7933" shape="18" startPoint="7735" type="log"/>
          <editParameter parameterIndex="0" slotIndex="4294967281"/>
          <editParameter parameterIndex="0" slotIndex="4294967280"/>
          <channelMap>
            <channel index="0" sourceIndex="0"/>
          </channelMap>
        </audioClip>
        <audioClip clipAutoCrossfade="true" crossFadeHeadClipID="13" crossFadeTailClipID="15" endPoint="164417" fileID="1" hue="-1" id="14" lockedInTime="false" looped="false" name="sm64_stomp 48000 1" offline="false" select="true" sourceInPoint="0" sourceOutPoint="7933" startPoint="156484" zOrder="14">
          <component componentGuid="add5a77b-c3c3-4144-8b17-147c53a8eeb5" componentID="Audition.Fader" id="clipGain" name="volume" powered="true">
            <parameter index="0" name="volume" parameterValue="1"/>
            <parameter index="1" name="static gain" parameterValue="1"/>
          </component>
          <component componentGuid="15853947-9d3c-43a5-b298-b8bd04a32386" componentID="Audition.Mute" id="clipMute" name="Mute" powered="true">
            <parameter index="0" parameterValue="0"/>
            <parameter index="1" name="mute" parameterValue="0"/>
          </component>
          <component componentGuid="304d4722-9394-47e4-9a64-831fecd5549c" componentID="Audition.StereoPanner" id="clipPan" name="StereoPanner" powered="true">
            <parameter index="0" name="Panorámica" parameterValue="0">
              <parameterKeyframes enableSplines="false" readOnly="false">
                <parameterKeyframe sampleOffset="6782" select="false" type="linear" value="0.5"/>
              </parameterKeyframes>
            </parameter>
          </component>
          <fadeIn crossFadeLinkType="linkedAsymmetric" endPoint="198" shape="19" startPoint="0" type="log"/>
          <fadeOut crossFadeLinkType="linkedAsymmetric" endPoint="7933" shape="18" startPoint="7619" type="log"/>
          <editParameter parameterIndex="0" slotIndex="4294967281"/>
          <editParameter parameterIndex="0" slotIndex="4294967280"/>
          <channelMap>
            <channel index="0" sourceIndex="0"/>
          </channelMap>
        </audioClip>
        <audioClip clipAutoCrossfade="true" crossFadeHeadClipID="14" crossFadeTailClipID="16" endPoint="172036" fileID="1" hue="-1" id="15" lockedInTime="false" looped="false" name="sm64_stomp 48000 1" offline="false" select="true" sourceInPoint="0" sourceOutPoint="7933" startPoint="164103" zOrder="18">
          <component componentGuid="f0ff3a9c-9be3-493d-a7a4-2eb6c588a3d6" componentID="Audition.Fader" id="clipGain" name="volume" powered="true">
            <parameter index="0" name="volume" parameterValue="1"/>
            <parameter index="1" name="static gain" parameterValue="1"/>
          </component>
          <component componentGuid="1ef6b032-9d43-4442-840d-4744a191995b" componentID="Audition.Mute" id="clipMute" name="Mute" powered="true">
            <parameter index="0" parameterValue="0"/>
            <parameter index="1" name="mute" parameterValue="0"/>
          </component>
          <component componentGuid="8268b979-e557-4b27-bd22-91ec55436235" componentID="Audition.StereoPanner" id="clipPan" name="StereoPanner" powered="true">
            <parameter index="0" name="Panorámica" parameterValue="0">
              <parameterKeyframes enableSplines="false" readOnly="false">
                <parameterKeyframe sampleOffset="6782" select="false" type="linear" value="0.5"/>
              </parameterKeyframes>
            </parameter>
          </component>
          <fadeIn crossFadeLinkType="linkedAsymmetric" endPoint="314" shape="19" startPoint="0" type="log"/>
          <fadeOut crossFadeLinkType="linkedAsymmetric" endPoint="7933" shape="18" startPoint="7504" type="log"/>
          <editParameter parameterIndex="0" slotIndex="4294967280"/>
          <editParameter parameterIndex="0" slotIndex="4294967281"/>
          <channelMap>
            <channel index="0" sourceIndex="0"/>
          </channelMap>
        </audioClip>
        <audioClip clipAutoCrossfade="true" crossFadeHeadClipID="15" crossFadeTailClipID="17" endPoint="179540" fileID="1" hue="-1" id="16" lockedInTime="false" looped="false" name="sm64_stomp 48000 1" offline="false" select="true" sourceInPoint="0" sourceOutPoint="7933" startPoint="171607" zOrder="12">
          <component componentGuid="f40bede4-b53e-407b-9f72-275a4018af50" componentID="Audition.Fader" id="clipGain" name="volume" powered="true">
            <parameter index="0" name="volume" parameterValue="1"/>
            <parameter index="1" name="static gain" parameterValue="1"/>
          </component>
          <component componentGuid="0ed6141e-24ea-4b88-ace3-97a23b6ff59c" componentID="Audition.Mute" id="clipMute" name="Mute" powered="true">
            <parameter index="0" parameterValue="0"/>
            <parameter index="1" name="mute" parameterValue="0"/>
          </component>
          <component componentGuid="c76d9737-757a-4ed1-86eb-c793c24aac7d" componentID="Audition.StereoPanner" id="clipPan" name="StereoPanner" powered="true">
            <parameter index="0" name="Panorámica" parameterValue="0">
              <parameterKeyframes enableSplines="false" readOnly="false">
                <parameterKeyframe sampleOffset="6782" select="false" type="linear" value="0.5"/>
              </parameterKeyframes>
            </parameter>
          </component>
          <fadeIn crossFadeLinkType="linkedAsymmetric" endPoint="429" shape="19" startPoint="0" type="log"/>
          <fadeOut crossFadeLinkType="linkedAsymmetric" endPoint="7933" shape="18" startPoint="7273" type="log"/>
          <editParameter parameterIndex="0" slotIndex="4294967281"/>
          <editParameter parameterIndex="0" slotIndex="4294967280"/>
          <channelMap>
            <channel index="0" sourceIndex="0"/>
          </channelMap>
        </audioClip>
        <audioClip clipAutoCrossfade="true" crossFadeHeadClipID="16" crossFadeTailClipID="18" endPoint="186813" fileID="1" hue="-1" id="17" lockedInTime="false" looped="false" name="sm64_stomp 48000 1" offline="false" select="true" sourceInPoint="0" sourceOutPoint="7933" startPoint="178880" zOrder="16">
          <component componentGuid="2f13676e-bd05-46ea-acac-c47cd0649a66" componentID="Audition.Fader" id="clipGain" name="volume" powered="true">
            <parameter index="0" name="volume" parameterValue="1"/>
            <parameter index="1" name="static gain" parameterValue="1"/>
          </component>
          <component componentGuid="bd8c8a04-e790-4a72-8ee4-9523b156725c" componentID="Audition.Mute" id="clipMute" name="Mute" powered="true">
            <parameter index="0" parameterValue="0"/>
            <parameter index="1" name="mute" parameterValue="0"/>
          </component>
          <component componentGuid="7f79fa86-52b3-4b80-bb27-7274209fafeb" componentID="Audition.StereoPanner" id="clipPan" name="StereoPanner" powered="true">
            <parameter index="0" name="Panorámica" parameterValue="0">
              <parameterKeyframes enableSplines="false" readOnly="false">
                <parameterKeyframe sampleOffset="6782" select="false" type="linear" value="0.5"/>
              </parameterKeyframes>
            </parameter>
          </component>
          <fadeIn crossFadeLinkType="linkedAsymmetric" endPoint="660" shape="19" startPoint="0" type="log"/>
          <fadeOut crossFadeLinkType="linkedAsymmetric" endPoint="7933" shape="18" startPoint="7847" type="log"/>
          <editParameter parameterIndex="0" slotIndex="4294967281"/>
          <editParameter parameterIndex="0" slotIndex="4294967280"/>
          <channelMap>
            <channel index="0" sourceIndex="0"/>
          </channelMap>
        </audioClip>
        <audioClip clipAutoCrossfade="true" crossFadeHeadClipID="17" crossFadeTailClipID="-1" endPoint="194660" fileID="1" hue="-1" id="18" lockedInTime="false" looped="false" name="sm64_stomp 48000 1" offline="false" select="true" sourceInPoint="0" sourceOutPoint="7933" startPoint="186727" zOrder="13">
          <component componentGuid="f19a7711-1f57-4f16-bc10-54f18a864213" componentID="Audition.Fader" id="clipGain" name="volume" powered="true">
            <parameter index="0" name="volume" parameterValue="1"/>
            <parameter index="1" name="static gain" parameterValue="1"/>
          </component>
          <component componentGuid="29991088-d871-4d8e-9c2b-7e9a27491a3a" componentID="Audition.Mute" id="clipMute" name="Mute" powered="true">
            <parameter index="0" parameterValue="0"/>
            <parameter index="1" name="mute" parameterValue="0"/>
          </component>
          <component componentGuid="e7b765b9-1645-402e-b209-38fbf35a0aff" componentID="Audition.StereoPanner" id="clipPan" name="StereoPanner" powered="true">
            <parameter index="0" name="Panorámica" parameterValue="0">
              <parameterKeyframes enableSplines="false" readOnly="false">
                <parameterKeyframe sampleOffset="6782" select="false" type="linear" value="0.5"/>
              </parameterKeyframes>
            </parameter>
          </component>
          <fadeIn crossFadeLinkType="linkedAsymmetric" endPoint="86" shape="19" startPoint="0" type="log"/>
          <fadeOut crossFadeLinkType="linkedAsymmetric" endPoint="7933" shape="18" startPoint="7933" type="log"/>
          <editParameter parameterIndex="0" slotIndex="4294967281"/>
          <editParameter parameterIndex="0" slotIndex="4294967280"/>
          <channelMap>
            <channel index="0" sourceIndex="0"/>
          </channelMap>
        </audioClip>
      </audioTrack>
      <audioTrack automationLaneOpenState="false" id="10003" index="3" select="false" visible="true">
        <trackParameters trackHeight="134" trackHue="51" trackMinimized="false">
          <name>Pista 3</name>
        </trackParameters>
        <trackAudioParameters audioChannelType="stereo" automationMode="1" monitoring="false" recordArmed="false" solo="false" soloSafe="false">
          <trackOutput outputID="10000" type="trackID"/>
          <trackInput inputID="1"/>
          <component componentGuid="19499f12-021b-4c18-9abe-a0222852f5c3" componentID="Audition.Fader" id="trackFader" name="volume" powered="true">
            <parameter index="0" name="volume" parameterValue="1"/>
            <parameter index="1" name="static gain" parameterValue="1"/>
          </component>
          <component componentGuid="1569bf8b-6380-430e-aa8d-67fba89fb0e1" componentID="Audition.Mute" id="trackMute" name="Mute" powered="true">
            <parameter index="0" parameterValue="0"/>
            <parameter index="1" name="mute" parameterValue="0"/>
          </component>
          <component componentGuid="6a7e2b7a-de0c-4e44-ae59-5e0decc22a97" componentID="Audition.StereoPanner" id="trackPan" name="StereoPanner" powered="true">
            <parameter index="0" name="Panorámica" parameterValue="0"/>
          </component>
          <component componentGuid="3f56f6b2-37b0-476e-bf20-f73b49db8936" componentID="Audition.EQ" id="trackEQ" name="EQ" powered="false">
            <parameter index="0" name="Frecuencia estante inferior" parameterValue="0.000834028352983295917510986328125"/>
            <parameter index="1" name="Ganancia estante inferior" parameterValue="0.5"/>
            <parameter index="2" name="Frecuencia estante superior" parameterValue="0.74979150295257568359375"/>
            <parameter index="3" name="Ganancia estante superior" parameterValue="0.5"/>
            <parameter index="4" name="Frecuencia central de banda de EC 1" parameterValue="0.00125104258768260478973388671875"/>
            <parameter index="5" name="Valor Q de banda de EC 1" parameterValue="0.000199989997781813144683837890625"/>
            <parameter index="6" name="Ganancia de banda de EC 1" parameterValue="0.5"/>
            <parameter index="7" name="Activación de banda de EC 1" parameterValue="1"/>
            <parameter index="8" name="Frecuencia central de banda de EC 2" parameterValue="0.0075062550604343414306640625"/>
            <parameter index="9" name="Valor Q de banda de EC 2" parameterValue="0.000199989997781813144683837890625"/>
            <parameter index="10" name="Ganancia de banda de EC 2" parameterValue="0.5"/>
            <parameter index="11" name="Activación de banda de EC 2" parameterValue="1"/>
            <parameter index="12" name="Frecuencia central de banda de EC 3" parameterValue="0.0325271077454090118408203125"/>
            <parameter index="13" name="Valor Q de banda de EC 3" parameterValue="0.000199989997781813144683837890625"/>
            <parameter index="14" name="Ganancia de banda de EC 3" parameterValue="0.5"/>
            <parameter index="15" name="Activación de banda de EC 3" parameterValue="1"/>
            <parameter index="16" name="Frecuencia central de banda de EC 4" parameterValue="0.13261051476001739501953125"/>
            <parameter index="17" name="Valor Q de banda de EC 4" parameterValue="0.000199989997781813144683837890625"/>
            <parameter index="18" name="Ganancia de banda de EC 4" parameterValue="0.5"/>
            <parameter index="19" name="Activación de banda de EC 4" parameterValue="1"/>
            <parameter index="20" name="Frecuencia central de banda de EC 5" parameterValue="0.532944142818450927734375"/>
            <parameter index="21" name="Valor Q de banda de EC 5" parameterValue="0.000199989997781813144683837890625"/>
            <parameter index="22" name="Ganancia de banda de EC 5" parameterValue="0.5"/>
            <parameter index="23" name="Activación de banda de EC 5" parameterValue="1"/>
            <parameter index="24" name="Ganancia maestra" parameterValue="0.666666686534881591796875"/>
            <parameter index="25" name="Constant Q" parameterValue="1"/>
            <parameter index="26" name="Orden de filtro de estante inferior" parameterValue="0"/>
            <parameter index="27" name="Orden de filtro de estante superior" parameterValue="0"/>
            <parameter index="28" name="Modo ultrasilencioso" parameterValue="0"/>
            <parameter index="29" name="Activar estante inferior" parameterValue="1"/>
            <parameter index="30" name="Activar estante superior" parameterValue="1"/>
            <parameter index="31" name="Velocidad de muestreo original" parameterValue="0.25"/>
            <parameter index="32" name="Ancho de banda de EC 1" parameterValue="0.002499990165233612060546875"/>
            <parameter index="33" name="Ancho de banda de EC 2" parameterValue="0.0099999904632568359375"/>
            <parameter index="34" name="Ancho de banda de EC 3" parameterValue="0.0399999916553497314453125"/>
            <parameter index="35" name="Ancho de banda de EC 4" parameterValue="0.15999998152256011962890625"/>
            <parameter index="36" name="Ancho de banda de EC 5" parameterValue="0.63999998569488525390625"/>
            <parameter index="37" name="Activación de filtro de pase alto" parameterValue="0"/>
            <parameter index="38" name="Frecuencia de límite de paso alto" parameterValue="0"/>
            <parameter index="39" name="Pendiente de paso alto" parameterValue="0.4000000059604644775390625"/>
            <parameter index="40" name="Activación de filtro de pase bajo" parameterValue="0"/>
            <parameter index="41" name="Frecuencia de límite de paso bajo" parameterValue="0.833194315433502197265625"/>
            <parameter index="42" name="Pendiente de paso bajo" parameterValue="0.4000000059604644775390625"/>
            <parameter index="43" name="Derivar" parameterValue="0"/>
            <parameter index="44" name="Rango de gráfico bajo" parameterValue="1"/>
          </component>
        </trackAudioParameters>
        <editParameter parameterIndex="0" slotIndex="4294967280"/>
        <audioClip clipAutoCrossfade="true" crossFadeHeadClipID="-1" crossFadeTailClipID="-1" endPoint="82397" fileID="1" hue="-1" id="0" lockedInTime="false" looped="false" name="sm64_stomp 48000 1" offline="false" select="true" sourceInPoint="0" sourceOutPoint="7933" startPoint="74464" zOrder="1">
          <component componentGuid="8e11c8b6-6248-4179-a482-ad33bfd83c31" componentID="Audition.Fader" id="clipGain" name="volume" powered="true">
            <parameter index="0" name="volume" parameterValue="1"/>
            <parameter index="1" name="static gain" parameterValue="1"/>
          </component>
          <component componentGuid="a207dedf-b8cd-4136-8736-8305079b6fc3" componentID="Audition.Mute" id="clipMute" name="Mute" powered="true">
            <parameter index="0" parameterValue="0"/>
            <parameter index="1" name="mute" parameterValue="0"/>
          </component>
          <component componentGuid="610cf09b-f7d7-426e-a8a3-74ff2a7a4004" componentID="Audition.StereoPanner" id="clipPan" name="StereoPanner" powered="true">
            <parameter index="0" name="Panorámica" parameterValue="0">
              <parameterKeyframes enableSplines="false" readOnly="false">
                <parameterKeyframe sampleOffset="6782" select="false" type="linear" value="0.5"/>
              </parameterKeyframes>
            </parameter>
          </component>
          <fadeIn crossFadeLinkType="linkedAsymmetric" endPoint="0" shape="19" startPoint="0" type="log"/>
          <fadeOut crossFadeLinkType="linkedAsymmetric" endPoint="7933" shape="18" startPoint="7933" type="log"/>
          <editParameter parameterIndex="0" slotIndex="4294967280"/>
          <editParameter parameterIndex="0" slotIndex="4294967281"/>
          <channelMap>
            <channel index="0" sourceIndex="0"/>
          </channelMap>
        </audioClip>
        <audioClip clipAutoCrossfade="true" crossFadeHeadClipID="-1" crossFadeTailClipID="2" endPoint="90330" fileID="1" hue="-1" id="1" lockedInTime="false" looped="false" name="sm64_stomp 48000 1" offline="false" select="true" sourceInPoint="0" sourceOutPoint="7933" startPoint="82397" zOrder="0">
          <component componentGuid="6f6e3da4-aaae-4d69-bbaf-80d0c2db7fae" componentID="Audition.Fader" id="clipGain" name="volume" powered="true">
            <parameter index="0" name="volume" parameterValue="1"/>
            <parameter index="1" name="static gain" parameterValue="1"/>
          </component>
          <component componentGuid="013d0746-183d-458c-a96c-2c845f74687f" componentID="Audition.Mute" id="clipMute" name="Mute" powered="true">
            <parameter index="0" parameterValue="0"/>
            <parameter index="1" name="mute" parameterValue="0"/>
          </component>
          <component componentGuid="6f974e57-1fa7-40a4-8e1c-b360cf144e3b" componentID="Audition.StereoPanner" id="clipPan" name="StereoPanner" powered="true">
            <parameter index="0" name="Panorámica" parameterValue="0">
              <parameterKeyframes enableSplines="false" readOnly="false">
                <parameterKeyframe sampleOffset="6782" select="false" type="linear" value="0.5"/>
              </parameterKeyframes>
            </parameter>
          </component>
          <fadeIn crossFadeLinkType="linkedAsymmetric" endPoint="0" shape="19" startPoint="0" type="log"/>
          <fadeOut crossFadeLinkType="linkedAsymmetric" endPoint="7933" shape="18" startPoint="7393" type="log"/>
          <editParameter parameterIndex="0" slotIndex="4294967281"/>
          <editParameter parameterIndex="0" slotIndex="4294967280"/>
          <channelMap>
            <channel index="0" sourceIndex="0"/>
          </channelMap>
        </audioClip>
        <audioClip clipAutoCrossfade="true" crossFadeHeadClipID="1" crossFadeTailClipID="3" endPoint="97723" fileID="1" hue="-1" id="2" lockedInTime="false" looped="false" name="sm64_stomp 48000 1" offline="false" select="true" sourceInPoint="0" sourceOutPoint="7933" startPoint="89790" zOrder="3">
          <component componentGuid="05813655-27d5-4c70-87b8-9847b618d06b" componentID="Audition.Fader" id="clipGain" name="volume" powered="true">
            <parameter index="0" name="volume" parameterValue="1"/>
            <parameter index="1" name="static gain" parameterValue="1"/>
          </component>
          <component componentGuid="aec784da-6efb-434f-bc7b-613d565d91df" componentID="Audition.Mute" id="clipMute" name="Mute" powered="true">
            <parameter index="0" parameterValue="0"/>
            <parameter index="1" name="mute" parameterValue="0"/>
          </component>
          <component componentGuid="a86498aa-5c88-465d-8803-f0665fa9e082" componentID="Audition.StereoPanner" id="clipPan" name="StereoPanner" powered="true">
            <parameter index="0" name="Panorámica" parameterValue="0">
              <parameterKeyframes enableSplines="false" readOnly="false">
                <parameterKeyframe sampleOffset="6782" select="false" type="linear" value="0.5"/>
              </parameterKeyframes>
            </parameter>
          </component>
          <fadeIn crossFadeLinkType="linkedAsymmetric" endPoint="540" shape="19" startPoint="0" type="log"/>
          <fadeOut crossFadeLinkType="linkedAsymmetric" endPoint="7933" shape="18" startPoint="7850" type="log"/>
          <editParameter parameterIndex="0" slotIndex="4294967281"/>
          <editParameter parameterIndex="0" slotIndex="4294967280"/>
          <channelMap>
            <channel index="0" sourceIndex="0"/>
          </channelMap>
        </audioClip>
        <audioClip clipAutoCrossfade="true" crossFadeHeadClipID="2" crossFadeTailClipID="4" endPoint="105573" fileID="1" hue="-1" id="3" lockedInTime="false" looped="false" name="sm64_stomp 48000 1" offline="false" select="true" sourceInPoint="0" sourceOutPoint="7933" startPoint="97640" zOrder="2">
          <component componentGuid="7f955f2a-3f41-4c37-bc38-8670c256aad5" componentID="Audition.Fader" id="clipGain" name="volume" powered="true">
            <parameter index="0" name="volume" parameterValue="1"/>
            <parameter index="1" name="static gain" parameterValue="1"/>
          </component>
          <component componentGuid="7577cbd2-e67a-4a41-803e-ebeb6049f2c2" componentID="Audition.Mute" id="clipMute" name="Mute" powered="true">
            <parameter index="0" parameterValue="0"/>
            <parameter index="1" name="mute" parameterValue="0"/>
          </component>
          <component componentGuid="b0d853c6-2ad4-4ece-8dd6-a9591cbe1cfd" componentID="Audition.StereoPanner" id="clipPan" name="StereoPanner" powered="true">
            <parameter index="0" name="Panorámica" parameterValue="0">
              <parameterKeyframes enableSplines="false" readOnly="false">
                <parameterKeyframe sampleOffset="6782" select="false" type="linear" value="0.5"/>
              </parameterKeyframes>
            </parameter>
          </component>
          <fadeIn crossFadeLinkType="linkedAsymmetric" endPoint="83" shape="19" startPoint="0" type="log"/>
          <fadeOut crossFadeLinkType="linkedAsymmetric" endPoint="7933" shape="19" startPoint="7826" type="log"/>
          <editParameter parameterIndex="0" slotIndex="4294967281"/>
          <editParameter parameterIndex="0" slotIndex="4294967280"/>
          <channelMap>
            <channel index="0" sourceIndex="0"/>
          </channelMap>
        </audioClip>
        <audioClip clipAutoCrossfade="true" crossFadeHeadClipID="3" crossFadeTailClipID="5" endPoint="113399" fileID="1" hue="-1" id="4" lockedInTime="false" looped="false" name="sm64_stomp 48000 1" offline="false" select="true" sourceInPoint="0" sourceOutPoint="7933" startPoint="105466" zOrder="10">
          <component componentGuid="97fe2dc4-d4a4-4f1b-a094-006251668a72" componentID="Audition.Fader" id="clipGain" name="volume" powered="true">
            <parameter index="0" name="volume" parameterValue="1"/>
            <parameter index="1" name="static gain" parameterValue="1"/>
          </component>
          <component componentGuid="03eddf08-7286-4e62-8ba5-b59b3e817469" componentID="Audition.Mute" id="clipMute" name="Mute" powered="true">
            <parameter index="0" parameterValue="0"/>
            <parameter index="1" name="mute" parameterValue="0"/>
          </component>
          <component componentGuid="92c6db5e-4635-4ff9-85e7-181bff755947" componentID="Audition.StereoPanner" id="clipPan" name="StereoPanner" powered="true">
            <parameter index="0" name="Panorámica" parameterValue="0">
              <parameterKeyframes enableSplines="false" readOnly="false">
                <parameterKeyframe sampleOffset="6782" select="false" type="linear" value="0.5"/>
              </parameterKeyframes>
            </parameter>
          </component>
          <fadeIn crossFadeLinkType="linkedAsymmetric" endPoint="107" shape="18" startPoint="0" type="log"/>
          <fadeOut crossFadeLinkType="linkedAsymmetric" endPoint="7933" shape="18" startPoint="7850" type="log"/>
          <editParameter parameterIndex="0" slotIndex="4294967281"/>
          <editParameter parameterIndex="0" slotIndex="4294967280"/>
          <channelMap>
            <channel index="0" sourceIndex="0"/>
          </channelMap>
        </audioClip>
        <audioClip clipAutoCrossfade="true" crossFadeHeadClipID="4" crossFadeTailClipID="6" endPoint="121249" fileID="1" hue="-1" id="5" lockedInTime="false" looped="false" name="sm64_stomp 48000 1" offline="false" select="true" sourceInPoint="0" sourceOutPoint="7933" startPoint="113316" zOrder="9">
          <component componentGuid="c674223f-d20c-42ce-a215-3e9a027289fb" componentID="Audition.Fader" id="clipGain" name="volume" powered="true">
            <parameter index="0" name="volume" parameterValue="1"/>
            <parameter index="1" name="static gain" parameterValue="1"/>
          </component>
          <component componentGuid="33f2c477-ef51-4493-89c5-71d09f2f9c80" componentID="Audition.Mute" id="clipMute" name="Mute" powered="true">
            <parameter index="0" parameterValue="0"/>
            <parameter index="1" name="mute" parameterValue="0"/>
          </component>
          <component componentGuid="7d355d93-4b06-4b2d-b0f5-4885a19e84a1" componentID="Audition.StereoPanner" id="clipPan" name="StereoPanner" powered="true">
            <parameter index="0" name="Panorámica" parameterValue="0">
              <parameterKeyframes enableSplines="false" readOnly="false">
                <parameterKeyframe sampleOffset="6782" select="false" type="linear" value="0.5"/>
              </parameterKeyframes>
            </parameter>
          </component>
          <fadeIn crossFadeLinkType="linkedAsymmetric" endPoint="83" shape="19" startPoint="0" type="log"/>
          <fadeOut crossFadeLinkType="linkedAsymmetric" endPoint="7933" shape="18" startPoint="7620" type="log"/>
          <editParameter parameterIndex="0" slotIndex="4294967281"/>
          <editParameter parameterIndex="0" slotIndex="4294967280"/>
          <channelMap>
            <channel index="0" sourceIndex="0"/>
          </channelMap>
        </audioClip>
        <audioClip clipAutoCrossfade="true" crossFadeHeadClipID="5" crossFadeTailClipID="-1" endPoint="128869" fileID="1" hue="-1" id="6" lockedInTime="false" looped="false" name="sm64_stomp 48000 1" offline="false" select="true" sourceInPoint="0" sourceOutPoint="7933" startPoint="120936" zOrder="11">
          <component componentGuid="f7f7e9bc-9e7c-4a0b-8462-daa7267a89dd" componentID="Audition.Fader" id="clipGain" name="volume" powered="true">
            <parameter index="0" name="volume" parameterValue="1"/>
            <parameter index="1" name="static gain" parameterValue="1"/>
          </component>
          <component componentGuid="b0aacfdc-345f-40b9-837e-df1632d0fb63" componentID="Audition.Mute" id="clipMute" name="Mute" powered="true">
            <parameter index="0" parameterValue="0"/>
            <parameter index="1" name="mute" parameterValue="0"/>
          </component>
          <component componentGuid="4310eb90-4138-4cf5-8a26-2cc3e4fde3bb" componentID="Audition.StereoPanner" id="clipPan" name="StereoPanner" powered="true">
            <parameter index="0" name="Panorámica" parameterValue="0">
              <parameterKeyframes enableSplines="false" readOnly="false">
                <parameterKeyframe sampleOffset="6782" select="false" type="linear" value="0.5"/>
              </parameterKeyframes>
            </parameter>
          </component>
          <fadeIn crossFadeLinkType="linkedAsymmetric" endPoint="313" shape="19" startPoint="0" type="log"/>
          <fadeOut crossFadeLinkType="linkedAsymmetric" endPoint="7933" shape="19" startPoint="7933" type="log"/>
          <editParameter parameterIndex="0" slotIndex="4294967281"/>
          <editParameter parameterIndex="0" slotIndex="4294967280"/>
          <channelMap>
            <channel index="0" sourceIndex="0"/>
          </channelMap>
        </audioClip>
        <audioClip clipAutoCrossfade="true" crossFadeHeadClipID="-1" crossFadeTailClipID="8" endPoint="136802" fileID="1" hue="-1" id="7" lockedInTime="false" looped="false" name="sm64_stomp 48000 1" offline="false" select="true" sourceInPoint="0" sourceOutPoint="7933" startPoint="128869" zOrder="4">
          <component componentGuid="71196a67-7437-4524-9ab2-5e38c34f2198" componentID="Audition.Fader" id="clipGain" name="volume" powered="true">
            <parameter index="0" name="volume" parameterValue="1"/>
            <parameter index="1" name="static gain" parameterValue="1"/>
          </component>
          <component componentGuid="9f884d1c-64d0-46f7-a070-0c7b68abd695" componentID="Audition.Mute" id="clipMute" name="Mute" powered="true">
            <parameter index="0" parameterValue="0"/>
            <parameter index="1" name="mute" parameterValue="0"/>
          </component>
          <component componentGuid="e945f971-9185-4c7c-9fbd-f5bef590be8e" componentID="Audition.StereoPanner" id="clipPan" name="StereoPanner" powered="true">
            <parameter index="0" name="Panorámica" parameterValue="0">
              <parameterKeyframes enableSplines="false" readOnly="false">
                <parameterKeyframe sampleOffset="6782" select="false" type="linear" value="0.5"/>
              </parameterKeyframes>
            </parameter>
          </component>
          <fadeIn crossFadeLinkType="linkedAsymmetric" endPoint="0" shape="19" startPoint="0" type="log"/>
          <fadeOut crossFadeLinkType="linkedAsymmetric" endPoint="7933" shape="18" startPoint="7735" type="log"/>
          <editParameter parameterIndex="0" slotIndex="4294967281"/>
          <editParameter parameterIndex="0" slotIndex="4294967280"/>
          <channelMap>
            <channel index="0" sourceIndex="0"/>
          </channelMap>
        </audioClip>
        <audioClip clipAutoCrossfade="true" crossFadeHeadClipID="7" crossFadeTailClipID="-1" endPoint="144537" fileID="1" hue="-1" id="8" lockedInTime="false" looped="false" name="sm64_stomp 48000 1" offline="false" select="true" sourceInPoint="0" sourceOutPoint="7933" startPoint="136604" zOrder="6">
          <component componentGuid="85f1309b-ec1e-4f27-926b-e45ada947475" componentID="Audition.Fader" id="clipGain" name="volume" powered="true">
            <parameter index="0" name="volume" parameterValue="1"/>
            <parameter index="1" name="static gain" parameterValue="1"/>
          </component>
          <component componentGuid="fae2142f-c6ef-4b9e-858c-48bafac9640f" componentID="Audition.Mute" id="clipMute" name="Mute" powered="true">
            <parameter index="0" parameterValue="0"/>
            <parameter index="1" name="mute" parameterValue="0"/>
          </component>
          <component componentGuid="d0a56a0b-e4af-471a-8f4c-c80f237c4a66" componentID="Audition.StereoPanner" id="clipPan" name="StereoPanner" powered="true">
            <parameter index="0" name="Panorámica" parameterValue="0">
              <parameterKeyframes enableSplines="false" readOnly="false">
                <parameterKeyframe sampleOffset="6782" select="false" type="linear" value="0.5"/>
              </parameterKeyframes>
            </parameter>
          </component>
          <fadeIn crossFadeLinkType="linkedAsymmetric" endPoint="198" shape="19" startPoint="0" type="log"/>
          <fadeOut crossFadeLinkType="linkedAsymmetric" endPoint="7933" shape="19" startPoint="7933" type="log"/>
          <editParameter parameterIndex="0" slotIndex="4294967281"/>
          <editParameter parameterIndex="0" slotIndex="4294967280"/>
          <channelMap>
            <channel index="0" sourceIndex="0"/>
          </channelMap>
        </audioClip>
        <audioClip clipAutoCrossfade="true" crossFadeHeadClipID="-1" crossFadeTailClipID="10" endPoint="152502" fileID="1" hue="-1" id="9" lockedInTime="false" looped="false" name="sm64_stomp 48000 1" offline="false" select="true" sourceInPoint="0" sourceOutPoint="7933" startPoint="144569" zOrder="8">
          <component componentGuid="3c286855-9631-4491-94ed-8f5a533b9a84" componentID="Audition.Fader" id="clipGain" name="volume" powered="true">
            <parameter index="0" name="volume" parameterValue="1"/>
            <parameter index="1" name="static gain" parameterValue="1"/>
          </component>
          <component componentGuid="a258c26e-8bab-4326-8321-ea3bc7079d63" componentID="Audition.Mute" id="clipMute" name="Mute" powered="true">
            <parameter index="0" parameterValue="0"/>
            <parameter index="1" name="mute" parameterValue="0"/>
          </component>
          <component componentGuid="7bbad1f2-d14a-4d38-a983-98fac28b0ae4" componentID="Audition.StereoPanner" id="clipPan" name="StereoPanner" powered="true">
            <parameter index="0" name="Panorámica" parameterValue="0">
              <parameterKeyframes enableSplines="false" readOnly="false">
                <parameterKeyframe sampleOffset="6782" select="false" type="linear" value="0.5"/>
              </parameterKeyframes>
            </parameter>
          </component>
          <fadeIn crossFadeLinkType="linkedAsymmetric" endPoint="0" shape="19" startPoint="0" type="log"/>
          <fadeOut crossFadeLinkType="linkedAsymmetric" endPoint="7933" shape="18" startPoint="7846" type="log"/>
          <editParameter parameterIndex="0" slotIndex="4294967281"/>
          <editParameter parameterIndex="0" slotIndex="4294967280"/>
          <channelMap>
            <channel index="0" sourceIndex="0"/>
          </channelMap>
        </audioClip>
        <audioClip clipAutoCrossfade="true" crossFadeHeadClipID="9" crossFadeTailClipID="-1" endPoint="160348" fileID="1" hue="-1" id="10" lockedInTime="false" looped="false" name="sm64_stomp 48000 1" offline="false" select="true" sourceInPoint="0" sourceOutPoint="7933" startPoint="152415" zOrder="5">
          <component componentGuid="0d35fcac-62d2-49d6-9a20-941cffeb9a70" componentID="Audition.Fader" id="clipGain" name="volume" powered="true">
            <parameter index="0" name="volume" parameterValue="1"/>
            <parameter index="1" name="static gain" parameterValue="1"/>
          </component>
          <component componentGuid="18e923d4-826a-4574-a295-737be892e86f" componentID="Audition.Mute" id="clipMute" name="Mute" powered="true">
            <parameter index="0" parameterValue="0"/>
            <parameter index="1" name="mute" parameterValue="0"/>
          </component>
          <component componentGuid="332fea48-c066-42a5-a94b-4431f6943512" componentID="Audition.StereoPanner" id="clipPan" name="StereoPanner" powered="true">
            <parameter index="0" name="Panorámica" parameterValue="0">
              <parameterKeyframes enableSplines="false" readOnly="false">
                <parameterKeyframe sampleOffset="6782" select="false" type="linear" value="0.5"/>
              </parameterKeyframes>
            </parameter>
          </component>
          <fadeIn crossFadeLinkType="linkedAsymmetric" endPoint="87" shape="19" startPoint="0" type="log"/>
          <fadeOut crossFadeLinkType="linkedAsymmetric" endPoint="7933" shape="19" startPoint="7933" type="log"/>
          <editParameter parameterIndex="0" slotIndex="4294967281"/>
          <editParameter parameterIndex="0" slotIndex="4294967280"/>
          <channelMap>
            <channel index="0" sourceIndex="0"/>
          </channelMap>
        </audioClip>
        <audioClip clipAutoCrossfade="true" crossFadeHeadClipID="-1" crossFadeTailClipID="12" endPoint="168313" fileID="1" hue="-1" id="11" lockedInTime="false" looped="false" name="sm64_stomp 48000 1" offline="false" select="true" sourceInPoint="0" sourceOutPoint="7933" startPoint="160380" zOrder="7">
          <component componentGuid="2ae82a08-ba7a-405a-a767-c89ce62bc947" componentID="Audition.Fader" id="clipGain" name="volume" powered="true">
            <parameter index="0" name="volume" parameterValue="1"/>
            <parameter index="1" name="static gain" parameterValue="1"/>
          </component>
          <component componentGuid="4bd2a8ea-2471-4baa-9823-23d2fabf6158" componentID="Audition.Mute" id="clipMute" name="Mute" powered="true">
            <parameter index="0" parameterValue="0"/>
            <parameter index="1" name="mute" parameterValue="0"/>
          </component>
          <component componentGuid="fe7ca843-e485-4b98-8bdf-f7d4595d05df" componentID="Audition.StereoPanner" id="clipPan" name="StereoPanner" powered="true">
            <parameter index="0" name="Panorámica" parameterValue="0">
              <parameterKeyframes enableSplines="false" readOnly="false">
                <parameterKeyframe sampleOffset="6782" select="false" type="linear" value="0.5"/>
              </parameterKeyframes>
            </parameter>
          </component>
          <fadeIn crossFadeLinkType="linkedAsymmetric" endPoint="0" shape="19" startPoint="0" type="log"/>
          <fadeOut crossFadeLinkType="linkedAsymmetric" endPoint="7933" shape="19" startPoint="7808" type="log"/>
          <editParameter parameterIndex="0" slotIndex="4294967281"/>
          <editParameter parameterIndex="0" slotIndex="4294967280"/>
          <channelMap>
            <channel index="0" sourceIndex="0"/>
          </channelMap>
        </audioClip>
        <audioClip clipAutoCrossfade="true" crossFadeHeadClipID="11" crossFadeTailClipID="13" endPoint="176121" fileID="1" hue="-1" id="12" lockedInTime="false" looped="false" name="sm64_stomp 48000 1" offline="false" select="true" sourceInPoint="0" sourceOutPoint="7933" startPoint="168188" zOrder="13">
          <component componentGuid="83483c75-7211-4034-8d3a-446e25d31b6a" componentID="Audition.Fader" id="clipGain" name="volume" powered="true">
            <parameter index="0" name="volume" parameterValue="1"/>
            <parameter index="1" name="static gain" parameterValue="1"/>
          </component>
          <component componentGuid="603f30f0-3e01-4a03-bb60-5dc75f6f4821" componentID="Audition.Mute" id="clipMute" name="Mute" powered="true">
            <parameter index="0" parameterValue="0"/>
            <parameter index="1" name="mute" parameterValue="0"/>
          </component>
          <component componentGuid="0ab3edb4-1f0a-4a20-8e52-9d96628ab66f" componentID="Audition.StereoPanner" id="clipPan" name="StereoPanner" powered="true">
            <parameter index="0" name="Panorámica" parameterValue="0">
              <parameterKeyframes enableSplines="false" readOnly="false">
                <parameterKeyframe sampleOffset="6782" select="false" type="linear" value="0.5"/>
              </parameterKeyframes>
            </parameter>
          </component>
          <fadeIn crossFadeLinkType="linkedAsymmetric" endPoint="125" shape="18" startPoint="0" type="log"/>
          <fadeOut crossFadeLinkType="linkedAsymmetric" endPoint="7933" shape="18" startPoint="7620" type="log"/>
          <editParameter parameterIndex="0" slotIndex="4294967280"/>
          <editParameter parameterIndex="0" slotIndex="4294967281"/>
          <channelMap>
            <channel index="0" sourceIndex="0"/>
          </channelMap>
        </audioClip>
        <audioClip clipAutoCrossfade="true" crossFadeHeadClipID="12" crossFadeTailClipID="14" endPoint="183741" fileID="1" hue="-1" id="13" lockedInTime="false" looped="false" name="sm64_stomp 48000 1" offline="false" select="true" sourceInPoint="0" sourceOutPoint="7933" startPoint="175808" zOrder="14">
          <component componentGuid="e5a66b46-bfd9-47ab-8d5d-ae7f46d0a8bb" componentID="Audition.Fader" id="clipGain" name="volume" powered="true">
            <parameter index="0" name="volume" parameterValue="1"/>
            <parameter index="1" name="static gain" parameterValue="1"/>
          </component>
          <component componentGuid="297ae67f-63c6-4078-ac79-591819fceb82" componentID="Audition.Mute" id="clipMute" name="Mute" powered="true">
            <parameter index="0" parameterValue="0"/>
            <parameter index="1" name="mute" parameterValue="0"/>
          </component>
          <component componentGuid="957761e0-bac1-4b1e-a3b1-7d38d86e7ee6" componentID="Audition.StereoPanner" id="clipPan" name="StereoPanner" powered="true">
            <parameter index="0" name="Panorámica" parameterValue="0">
              <parameterKeyframes enableSplines="false" readOnly="false">
                <parameterKeyframe sampleOffset="6782" select="false" type="linear" value="0.5"/>
              </parameterKeyframes>
            </parameter>
          </component>
          <fadeIn crossFadeLinkType="linkedAsymmetric" endPoint="313" shape="19" startPoint="0" type="log"/>
          <fadeOut crossFadeLinkType="linkedAsymmetric" endPoint="7933" shape="18" startPoint="7734" type="log"/>
          <editParameter parameterIndex="0" slotIndex="4294967280"/>
          <editParameter parameterIndex="0" slotIndex="4294967281"/>
          <channelMap>
            <channel index="0" sourceIndex="0"/>
          </channelMap>
        </audioClip>
        <audioClip clipAutoCrossfade="true" crossFadeHeadClipID="13" crossFadeTailClipID="15" endPoint="191475" fileID="1" hue="-1" id="14" lockedInTime="false" looped="false" name="sm64_stomp 48000 1" offline="false" select="true" sourceInPoint="0" sourceOutPoint="7933" startPoint="183542" zOrder="12">
          <component componentGuid="46baacf9-d79f-49a6-ac12-f81f203d649b" componentID="Audition.Fader" id="clipGain" name="volume" powered="true">
            <parameter index="0" name="volume" parameterValue="1"/>
            <parameter index="1" name="static gain" parameterValue="1"/>
          </component>
          <component componentGuid="fb1f83b2-51bf-40cc-9b92-05bf8f887e52" componentID="Audition.Mute" id="clipMute" name="Mute" powered="true">
            <parameter index="0" parameterValue="0"/>
            <parameter index="1" name="mute" parameterValue="0"/>
          </component>
          <component componentGuid="675604c7-703b-47b4-8762-c9c0d27c890a" componentID="Audition.StereoPanner" id="clipPan" name="StereoPanner" powered="true">
            <parameter index="0" name="Panorámica" parameterValue="0">
              <parameterKeyframes enableSplines="false" readOnly="false">
                <parameterKeyframe sampleOffset="6782" select="false" type="linear" value="0.5"/>
              </parameterKeyframes>
            </parameter>
          </component>
          <fadeIn crossFadeLinkType="linkedAsymmetric" endPoint="199" shape="19" startPoint="0" type="log"/>
          <fadeOut crossFadeLinkType="linkedAsymmetric" endPoint="7933" shape="18" startPoint="7735" type="log"/>
          <editParameter parameterIndex="0" slotIndex="4294967280"/>
          <editParameter parameterIndex="0" slotIndex="4294967281"/>
          <channelMap>
            <channel index="0" sourceIndex="0"/>
          </channelMap>
        </audioClip>
        <audioClip clipAutoCrossfade="true" crossFadeHeadClipID="14" crossFadeTailClipID="-1" endPoint="199210" fileID="1" hue="-1" id="15" lockedInTime="false" looped="false" name="sm64_stomp 48000 1" offline="false" select="true" sourceInPoint="0" sourceOutPoint="7933" startPoint="191277" zOrder="15">
          <component componentGuid="0881c6a9-6bb4-4e9d-b786-83b70ed1896b" componentID="Audition.Fader" id="clipGain" name="volume" powered="true">
            <parameter index="0" name="volume" parameterValue="1"/>
            <parameter index="1" name="static gain" parameterValue="1"/>
          </component>
          <component componentGuid="acc8254d-f728-41a3-8c95-9798a8da21d9" componentID="Audition.Mute" id="clipMute" name="Mute" powered="true">
            <parameter index="0" parameterValue="0"/>
            <parameter index="1" name="mute" parameterValue="0"/>
          </component>
          <component componentGuid="e7616d68-4af3-4824-be75-f8ae92a47c49" componentID="Audition.StereoPanner" id="clipPan" name="StereoPanner" powered="true">
            <parameter index="0" name="Panorámica" parameterValue="0">
              <parameterKeyframes enableSplines="false" readOnly="false">
                <parameterKeyframe sampleOffset="6782" select="false" type="linear" value="0.5"/>
              </parameterKeyframes>
            </parameter>
          </component>
          <fadeIn crossFadeLinkType="linkedAsymmetric" endPoint="198" shape="19" startPoint="0" type="log"/>
          <fadeOut crossFadeLinkType="linkedAsymmetric" endPoint="7933" shape="18" startPoint="7933" type="log"/>
          <editParameter parameterIndex="0" slotIndex="4294967280"/>
          <editParameter parameterIndex="0" slotIndex="4294967281"/>
          <channelMap>
            <channel index="0" sourceIndex="0"/>
          </channelMap>
        </audioClip>
      </audioTrack>
      <audioTrack automationLaneOpenState="false" id="10004" index="4" select="false" visible="true">
        <trackParameters trackHeight="134" trackHue="182" trackMinimized="false">
          <name>Pista 4</name>
        </trackParameters>
        <trackAudioParameters audioChannelType="stereo" automationMode="1" monitoring="false" recordArmed="false" solo="false" soloSafe="false">
          <trackOutput outputID="10000" type="trackID"/>
          <trackInput inputID="1"/>
          <component componentGuid="e5b03d12-e29c-4ab5-8e16-92791d94ee8b" componentID="Audition.Fader" id="trackFader" name="volume" powered="true">
            <parameter index="0" name="volume" parameterValue="1"/>
            <parameter index="1" name="static gain" parameterValue="1"/>
          </component>
          <component componentGuid="0452da23-98ab-4298-8793-c56d007ffbd6" componentID="Audition.Mute" id="trackMute" name="Mute" powered="true">
            <parameter index="0" parameterValue="0"/>
            <parameter index="1" name="mute" parameterValue="0"/>
          </component>
          <component componentGuid="ab20d54c-e436-4d1e-bec1-ac6739d9584d" componentID="Audition.StereoPanner" id="trackPan" name="StereoPanner" powered="true">
            <parameter index="0" name="Panorámica" parameterValue="0"/>
          </component>
          <component componentGuid="8ee9bb9f-ee11-49a8-8ca4-bb1b2fd32f7e" componentID="Audition.EQ" id="trackEQ" name="EQ" powered="false">
            <parameter index="0" name="Frecuencia estante inferior" parameterValue="0.000834028352983295917510986328125"/>
            <parameter index="1" name="Ganancia estante inferior" parameterValue="0.5"/>
            <parameter index="2" name="Frecuencia estante superior" parameterValue="0.74979150295257568359375"/>
            <parameter index="3" name="Ganancia estante superior" parameterValue="0.5"/>
            <parameter index="4" name="Frecuencia central de banda de EC 1" parameterValue="0.00125104258768260478973388671875"/>
            <parameter index="5" name="Valor Q de banda de EC 1" parameterValue="0.000199989997781813144683837890625"/>
            <parameter index="6" name="Ganancia de banda de EC 1" parameterValue="0.5"/>
            <parameter index="7" name="Activación de banda de EC 1" parameterValue="1"/>
            <parameter index="8" name="Frecuencia central de banda de EC 2" parameterValue="0.0075062550604343414306640625"/>
            <parameter index="9" name="Valor Q de banda de EC 2" parameterValue="0.000199989997781813144683837890625"/>
            <parameter index="10" name="Ganancia de banda de EC 2" parameterValue="0.5"/>
            <parameter index="11" name="Activación de banda de EC 2" parameterValue="1"/>
            <parameter index="12" name="Frecuencia central de banda de EC 3" parameterValue="0.0325271077454090118408203125"/>
            <parameter index="13" name="Valor Q de banda de EC 3" parameterValue="0.000199989997781813144683837890625"/>
            <parameter index="14" name="Ganancia de banda de EC 3" parameterValue="0.5"/>
            <parameter index="15" name="Activación de banda de EC 3" parameterValue="1"/>
            <parameter index="16" name="Frecuencia central de banda de EC 4" parameterValue="0.13261051476001739501953125"/>
            <parameter index="17" name="Valor Q de banda de EC 4" parameterValue="0.000199989997781813144683837890625"/>
            <parameter index="18" name="Ganancia de banda de EC 4" parameterValue="0.5"/>
            <parameter index="19" name="Activación de banda de EC 4" parameterValue="1"/>
            <parameter index="20" name="Frecuencia central de banda de EC 5" parameterValue="0.532944142818450927734375"/>
            <parameter index="21" name="Valor Q de banda de EC 5" parameterValue="0.000199989997781813144683837890625"/>
            <parameter index="22" name="Ganancia de banda de EC 5" parameterValue="0.5"/>
            <parameter index="23" name="Activación de banda de EC 5" parameterValue="1"/>
            <parameter index="24" name="Ganancia maestra" parameterValue="0.666666686534881591796875"/>
            <parameter index="25" name="Constant Q" parameterValue="1"/>
            <parameter index="26" name="Orden de filtro de estante inferior" parameterValue="0"/>
            <parameter index="27" name="Orden de filtro de estante superior" parameterValue="0"/>
            <parameter index="28" name="Modo ultrasilencioso" parameterValue="0"/>
            <parameter index="29" name="Activar estante inferior" parameterValue="1"/>
            <parameter index="30" name="Activar estante superior" parameterValue="1"/>
            <parameter index="31" name="Velocidad de muestreo original" parameterValue="0.25"/>
            <parameter index="32" name="Ancho de banda de EC 1" parameterValue="0.002499990165233612060546875"/>
            <parameter index="33" name="Ancho de banda de EC 2" parameterValue="0.0099999904632568359375"/>
            <parameter index="34" name="Ancho de banda de EC 3" parameterValue="0.0399999916553497314453125"/>
            <parameter index="35" name="Ancho de banda de EC 4" parameterValue="0.15999998152256011962890625"/>
            <parameter index="36" name="Ancho de banda de EC 5" parameterValue="0.63999998569488525390625"/>
            <parameter index="37" name="Activación de filtro de pase alto" parameterValue="0"/>
            <parameter index="38" name="Frecuencia de límite de paso alto" parameterValue="0"/>
            <parameter index="39" name="Pendiente de paso alto" parameterValue="0.4000000059604644775390625"/>
            <parameter index="40" name="Activación de filtro de pase bajo" parameterValue="0"/>
            <parameter index="41" name="Frecuencia de límite de paso bajo" parameterValue="0.833194315433502197265625"/>
            <parameter index="42" name="Pendiente de paso bajo" parameterValue="0.4000000059604644775390625"/>
            <parameter index="43" name="Derivar" parameterValue="0"/>
            <parameter index="44" name="Rango de gráfico bajo" parameterValue="1"/>
          </component>
        </trackAudioParameters>
        <editParameter parameterIndex="0" slotIndex="4294967280"/>
        <audioClip clipAutoCrossfade="true" crossFadeHeadClipID="-1" crossFadeTailClipID="1" endPoint="282936" fileID="2" hue="-1" id="0" lockedInTime="false" looped="false" name="WATRBubl_Boiling water (ID 0149)_BSB 48000 1" offline="false" select="true" sourceInPoint="0" sourceOutPoint="76515" startPoint="206421" zOrder="19">
          <component componentGuid="13765885-5fc0-4e4c-9cd9-a45a711fc10e" componentID="Audition.Fader" id="clipGain" name="volume" powered="true">
            <parameter index="0" name="volume" parameterValue="1"/>
            <parameter index="1" name="static gain" parameterValue="1"/>
          </component>
          <component componentGuid="66a59600-1b3f-40d9-b682-885560ba2b9e" componentID="Audition.Mute" id="clipMute" name="Mute" powered="true">
            <parameter index="0" parameterValue="0"/>
            <parameter index="1" name="mute" parameterValue="0"/>
          </component>
          <component componentGuid="eddb3197-7a1c-4a9b-8f40-e2557e019403" componentID="Audition.StereoPanner" id="clipPan" name="StereoPanner" powered="true">
            <parameter index="0" name="Panorámica" parameterValue="0"/>
          </component>
          <fadeIn crossFadeLinkType="linkedAsymmetric" endPoint="0" shape="0" startPoint="0" type="cosine"/>
          <fadeOut crossFadeLinkType="linkedAsymmetric" endPoint="76515" shape="18" startPoint="76246" type="log"/>
          <editParameter parameterIndex="0" slotIndex="4294967281"/>
          <editParameter parameterIndex="0" slotIndex="4294967280"/>
          <channelMap>
            <channel index="0" sourceIndex="0"/>
          </channelMap>
        </audioClip>
        <audioClip clipAutoCrossfade="true" crossFadeHeadClipID="0" crossFadeTailClipID="2" endPoint="310110" fileID="3" hue="-1" id="1" lockedInTime="false" looped="false" name="Explosion+1 48000 1" offline="false" select="true" sourceInPoint="0" sourceOutPoint="27443" startPoint="282667" zOrder="20">
          <component componentGuid="c5627580-bb0a-48da-82ee-144e8577519b" componentID="Audition.Fader" id="clipGain" name="volume" powered="true">
            <parameter index="0" name="volume" parameterValue="0.3000331819057464599609375"/>
            <parameter index="1" name="static gain" parameterValue="1"/>
          </component>
          <component componentGuid="18c4f949-b56a-4326-a56d-ef3dcdbde340" componentID="Audition.Mute" id="clipMute" name="Mute" powered="true">
            <parameter index="0" parameterValue="0"/>
            <parameter index="1" name="mute" parameterValue="0"/>
          </component>
          <component componentGuid="49f27ebe-1fd7-402c-ae2a-2464eb1cf4bb" componentID="Audition.StereoPanner" id="clipPan" name="StereoPanner" powered="true">
            <parameter index="0" name="Panorámica" parameterValue="0"/>
          </component>
          <fadeIn crossFadeLinkType="linkedAsymmetric" endPoint="269" shape="19" startPoint="0" type="log"/>
          <fadeOut crossFadeLinkType="linkedAsymmetric" endPoint="27443" shape="18" startPoint="27365" type="log"/>
          <editParameter parameterIndex="0" slotIndex="4294967281"/>
          <editParameter parameterIndex="0" slotIndex="4294967280"/>
          <channelMap>
            <channel index="0" sourceIndex="0"/>
          </channelMap>
        </audioClip>
        <audioClip clipAutoCrossfade="true" crossFadeHeadClipID="1" crossFadeTailClipID="-1" endPoint="369435" fileID="4" hue="-1" id="2" lockedInTime="false" looped="false" name="Plastic-Item-Dropping-or-falling-on-floor-www.fesliyanstudios.com" offline="false" select="true" sourceInPoint="0" sourceOutPoint="59403" startPoint="310032" zOrder="22">
          <component componentGuid="6d16d4c5-5e77-4555-b883-0259d4671588" componentID="Audition.Fader" id="clipGain" name="volume" powered="true">
            <parameter index="0" name="volume" parameterValue="1"/>
            <parameter index="1" name="static gain" parameterValue="1"/>
          </component>
          <component componentGuid="df34baf5-2237-4509-a88d-8a38e78a835e" componentID="Audition.Mute" id="clipMute" name="Mute" powered="true">
            <parameter index="0" parameterValue="0"/>
            <parameter index="1" name="mute" parameterValue="0"/>
          </component>
          <component componentGuid="4f7efd01-348b-4121-aefa-fd80a97b07de" componentID="Audition.StereoPanner" id="clipPan" name="StereoPanner" powered="true">
            <parameter index="0" name="Panorámica" parameterValue="0"/>
          </component>
          <fadeIn crossFadeLinkType="linkedAsymmetric" endPoint="78" shape="19" startPoint="0" type="log"/>
          <fadeOut crossFadeLinkType="linkedAsymmetric" endPoint="59403" shape="0" startPoint="59403" type="cosine"/>
          <editParameter parameterIndex="0" slotIndex="4294967281"/>
          <editParameter parameterIndex="0" slotIndex="4294967280"/>
          <channelMap>
            <channel index="0" sourceIndex="0"/>
            <channel index="1" sourceIndex="1"/>
          </channelMap>
        </audioClip>
      </audioTrack>
      <audioTrack automationLaneOpenState="false" id="10005" index="5" select="false" visible="true">
        <trackParameters trackHeight="134" trackHue="294" trackMinimized="false">
          <name>Pista 5</name>
        </trackParameters>
        <trackAudioParameters audioChannelType="stereo" automationMode="1" monitoring="false" recordArmed="false" solo="false" soloSafe="false">
          <trackOutput outputID="10000" type="trackID"/>
          <trackInput inputID="1"/>
          <component componentGuid="d2e2be4e-4ae4-49fb-b817-b6a468693ceb" componentID="Audition.Fader" id="trackFader" name="volume" powered="true">
            <parameter index="0" name="volume" parameterValue="1"/>
            <parameter index="1" name="static gain" parameterValue="1"/>
          </component>
          <component componentGuid="39288f96-5d32-48e4-a4ff-7ec22fdc9063" componentID="Audition.Mute" id="trackMute" name="Mute" powered="true">
            <parameter index="0" parameterValue="0"/>
            <parameter index="1" name="mute" parameterValue="0"/>
          </component>
          <component componentGuid="fa81bb38-30d5-4338-8c21-76b79635e926" componentID="Audition.StereoPanner" id="trackPan" name="StereoPanner" powered="true">
            <parameter index="0" name="Panorámica" parameterValue="0"/>
          </component>
          <component componentGuid="01e2664d-57f1-4195-8528-9d96119f6f3d" componentID="Audition.EQ" id="trackEQ" name="EQ" powered="false">
            <parameter index="0" name="Frecuencia estante inferior" parameterValue="0.000834028352983295917510986328125"/>
            <parameter index="1" name="Ganancia estante inferior" parameterValue="0.5"/>
            <parameter index="2" name="Frecuencia estante superior" parameterValue="0.74979150295257568359375"/>
            <parameter index="3" name="Ganancia estante superior" parameterValue="0.5"/>
            <parameter index="4" name="Frecuencia central de banda de EC 1" parameterValue="0.00125104258768260478973388671875"/>
            <parameter index="5" name="Valor Q de banda de EC 1" parameterValue="0.000199989997781813144683837890625"/>
            <parameter index="6" name="Ganancia de banda de EC 1" parameterValue="0.5"/>
            <parameter index="7" name="Activación de banda de EC 1" parameterValue="1"/>
            <parameter index="8" name="Frecuencia central de banda de EC 2" parameterValue="0.0075062550604343414306640625"/>
            <parameter index="9" name="Valor Q de banda de EC 2" parameterValue="0.000199989997781813144683837890625"/>
            <parameter index="10" name="Ganancia de banda de EC 2" parameterValue="0.5"/>
            <parameter index="11" name="Activación de banda de EC 2" parameterValue="1"/>
            <parameter index="12" name="Frecuencia central de banda de EC 3" parameterValue="0.0325271077454090118408203125"/>
            <parameter index="13" name="Valor Q de banda de EC 3" parameterValue="0.000199989997781813144683837890625"/>
            <parameter index="14" name="Ganancia de banda de EC 3" parameterValue="0.5"/>
            <parameter index="15" name="Activación de banda de EC 3" parameterValue="1"/>
            <parameter index="16" name="Frecuencia central de banda de EC 4" parameterValue="0.13261051476001739501953125"/>
            <parameter index="17" name="Valor Q de banda de EC 4" parameterValue="0.000199989997781813144683837890625"/>
            <parameter index="18" name="Ganancia de banda de EC 4" parameterValue="0.5"/>
            <parameter index="19" name="Activación de banda de EC 4" parameterValue="1"/>
            <parameter index="20" name="Frecuencia central de banda de EC 5" parameterValue="0.532944142818450927734375"/>
            <parameter index="21" name="Valor Q de banda de EC 5" parameterValue="0.000199989997781813144683837890625"/>
            <parameter index="22" name="Ganancia de banda de EC 5" parameterValue="0.5"/>
            <parameter index="23" name="Activación de banda de EC 5" parameterValue="1"/>
            <parameter index="24" name="Ganancia maestra" parameterValue="0.666666686534881591796875"/>
            <parameter index="25" name="Constant Q" parameterValue="1"/>
            <parameter index="26" name="Orden de filtro de estante inferior" parameterValue="0"/>
            <parameter index="27" name="Orden de filtro de estante superior" parameterValue="0"/>
            <parameter index="28" name="Modo ultrasilencioso" parameterValue="0"/>
            <parameter index="29" name="Activar estante inferior" parameterValue="1"/>
            <parameter index="30" name="Activar estante superior" parameterValue="1"/>
            <parameter index="31" name="Velocidad de muestreo original" parameterValue="0.25"/>
            <parameter index="32" name="Ancho de banda de EC 1" parameterValue="0.002499990165233612060546875"/>
            <parameter index="33" name="Ancho de banda de EC 2" parameterValue="0.0099999904632568359375"/>
            <parameter index="34" name="Ancho de banda de EC 3" parameterValue="0.0399999916553497314453125"/>
            <parameter index="35" name="Ancho de banda de EC 4" parameterValue="0.15999998152256011962890625"/>
            <parameter index="36" name="Ancho de banda de EC 5" parameterValue="0.63999998569488525390625"/>
            <parameter index="37" name="Activación de filtro de pase alto" parameterValue="0"/>
            <parameter index="38" name="Frecuencia de límite de paso alto" parameterValue="0"/>
            <parameter index="39" name="Pendiente de paso alto" parameterValue="0.4000000059604644775390625"/>
            <parameter index="40" name="Activación de filtro de pase bajo" parameterValue="0"/>
            <parameter index="41" name="Frecuencia de límite de paso bajo" parameterValue="0.833194315433502197265625"/>
            <parameter index="42" name="Pendiente de paso bajo" parameterValue="0.4000000059604644775390625"/>
            <parameter index="43" name="Derivar" parameterValue="0"/>
            <parameter index="44" name="Rango de gráfico bajo" parameterValue="1"/>
          </component>
        </trackAudioParameters>
        <editParameter parameterIndex="0" slotIndex="4294967280"/>
      </audioTrack>
      <audioTrack automationLaneOpenState="false" id="10006" index="6" select="false" visible="true">
        <trackParameters trackHeight="134" trackHue="92" trackMinimized="false">
          <name>Pista 6</name>
        </trackParameters>
        <trackAudioParameters audioChannelType="stereo" automationMode="1" monitoring="false" recordArmed="false" solo="false" soloSafe="false">
          <trackOutput outputID="10000" type="trackID"/>
          <trackInput inputID="1"/>
          <component componentGuid="90c265b6-eba4-4931-9a52-c4de3913c286" componentID="Audition.Fader" id="trackFader" name="volume" powered="true">
            <parameter index="0" name="volume" parameterValue="1"/>
            <parameter index="1" name="static gain" parameterValue="1"/>
          </component>
          <component componentGuid="0d6d4af4-8ed4-4c12-bf61-35887a09272a" componentID="Audition.Mute" id="trackMute" name="Mute" powered="true">
            <parameter index="0" parameterValue="0"/>
            <parameter index="1" name="mute" parameterValue="0"/>
          </component>
          <component componentGuid="69e18d32-fd84-48d3-9b72-a58a9b9a87a3" componentID="Audition.StereoPanner" id="trackPan" name="StereoPanner" powered="true">
            <parameter index="0" name="Panorámica" parameterValue="0"/>
          </component>
          <component componentGuid="0496440f-bb49-4bd7-a2ee-3a02ed12e9ca" componentID="Audition.EQ" id="trackEQ" name="EQ" powered="false">
            <parameter index="0" name="Frecuencia estante inferior" parameterValue="0.000834028352983295917510986328125"/>
            <parameter index="1" name="Ganancia estante inferior" parameterValue="0.5"/>
            <parameter index="2" name="Frecuencia estante superior" parameterValue="0.74979150295257568359375"/>
            <parameter index="3" name="Ganancia estante superior" parameterValue="0.5"/>
            <parameter index="4" name="Frecuencia central de banda de EC 1" parameterValue="0.00125104258768260478973388671875"/>
            <parameter index="5" name="Valor Q de banda de EC 1" parameterValue="0.000199989997781813144683837890625"/>
            <parameter index="6" name="Ganancia de banda de EC 1" parameterValue="0.5"/>
            <parameter index="7" name="Activación de banda de EC 1" parameterValue="1"/>
            <parameter index="8" name="Frecuencia central de banda de EC 2" parameterValue="0.0075062550604343414306640625"/>
            <parameter index="9" name="Valor Q de banda de EC 2" parameterValue="0.000199989997781813144683837890625"/>
            <parameter index="10" name="Ganancia de banda de EC 2" parameterValue="0.5"/>
            <parameter index="11" name="Activación de banda de EC 2" parameterValue="1"/>
            <parameter index="12" name="Frecuencia central de banda de EC 3" parameterValue="0.0325271077454090118408203125"/>
            <parameter index="13" name="Valor Q de banda de EC 3" parameterValue="0.000199989997781813144683837890625"/>
            <parameter index="14" name="Ganancia de banda de EC 3" parameterValue="0.5"/>
            <parameter index="15" name="Activación de banda de EC 3" parameterValue="1"/>
            <parameter index="16" name="Frecuencia central de banda de EC 4" parameterValue="0.13261051476001739501953125"/>
            <parameter index="17" name="Valor Q de banda de EC 4" parameterValue="0.000199989997781813144683837890625"/>
            <parameter index="18" name="Ganancia de banda de EC 4" parameterValue="0.5"/>
            <parameter index="19" name="Activación de banda de EC 4" parameterValue="1"/>
            <parameter index="20" name="Frecuencia central de banda de EC 5" parameterValue="0.532944142818450927734375"/>
            <parameter index="21" name="Valor Q de banda de EC 5" parameterValue="0.000199989997781813144683837890625"/>
            <parameter index="22" name="Ganancia de banda de EC 5" parameterValue="0.5"/>
            <parameter index="23" name="Activación de banda de EC 5" parameterValue="1"/>
            <parameter index="24" name="Ganancia maestra" parameterValue="0.666666686534881591796875"/>
            <parameter index="25" name="Constant Q" parameterValue="1"/>
            <parameter index="26" name="Orden de filtro de estante inferior" parameterValue="0"/>
            <parameter index="27" name="Orden de filtro de estante superior" parameterValue="0"/>
            <parameter index="28" name="Modo ultrasilencioso" parameterValue="0"/>
            <parameter index="29" name="Activar estante inferior" parameterValue="1"/>
            <parameter index="30" name="Activar estante superior" parameterValue="1"/>
            <parameter index="31" name="Velocidad de muestreo original" parameterValue="0.25"/>
            <parameter index="32" name="Ancho de banda de EC 1" parameterValue="0.002499990165233612060546875"/>
            <parameter index="33" name="Ancho de banda de EC 2" parameterValue="0.0099999904632568359375"/>
            <parameter index="34" name="Ancho de banda de EC 3" parameterValue="0.0399999916553497314453125"/>
            <parameter index="35" name="Ancho de banda de EC 4" parameterValue="0.15999998152256011962890625"/>
            <parameter index="36" name="Ancho de banda de EC 5" parameterValue="0.63999998569488525390625"/>
            <parameter index="37" name="Activación de filtro de pase alto" parameterValue="0"/>
            <parameter index="38" name="Frecuencia de límite de paso alto" parameterValue="0"/>
            <parameter index="39" name="Pendiente de paso alto" parameterValue="0.4000000059604644775390625"/>
            <parameter index="40" name="Activación de filtro de pase bajo" parameterValue="0"/>
            <parameter index="41" name="Frecuencia de límite de paso bajo" parameterValue="0.833194315433502197265625"/>
            <parameter index="42" name="Pendiente de paso bajo" parameterValue="0.4000000059604644775390625"/>
            <parameter index="43" name="Derivar" parameterValue="0"/>
            <parameter index="44" name="Rango de gráfico bajo" parameterValue="1"/>
          </component>
        </trackAudioParameters>
        <editParameter parameterIndex="0" slotIndex="4294967280"/>
      </audioTrack>
      <masterTrack automationLaneOpenState="false" id="10000" index="7" select="false" visible="true">
        <trackParameters trackHeight="134" trackHue="-1" trackMinimized="false">
          <name>Maestro</name>
        </trackParameters>
        <trackAudioParameters audioChannelType="stereo" automationMode="1" monitoring="false" recordArmed="false" solo="false" soloSafe="true">
          <trackOutput outputID="1" type="hardwareOutput"/>
          <trackInput inputID="-1"/>
          <component componentGuid="602f5d3c-74fa-4b8b-9609-3f255de0dae1" componentID="Audition.Fader" id="trackFader" name="volume" powered="true">
            <parameter index="0" name="volume" parameterValue="1"/>
            <parameter index="1" name="static gain" parameterValue="1"/>
          </component>
          <component componentGuid="8f10e62e-d058-461a-a63e-0acaa203eaae" componentID="Audition.Mute" id="trackMute" name="Mute" powered="true">
            <parameter index="0" parameterValue="0"/>
            <parameter index="1" name="mute" parameterValue="0"/>
          </component>
          <component componentGuid="289a46b7-0daf-4a85-a1d0-41e1483107e3" componentID="Audition.StereoPanner" id="trackPan" name="StereoPanner" powered="true">
            <parameter index="0" name="Panorámica" parameterValue="0"/>
          </component>
          <component componentGuid="793d3a2e-ebda-4ab9-8323-3f1333590ae5" componentID="Audition.EQ" id="trackEQ" name="EQ" powered="false">
            <parameter index="0" name="Frecuencia estante inferior" parameterValue="0.000834028352983295917510986328125"/>
            <parameter index="1" name="Ganancia estante inferior" parameterValue="0.5"/>
            <parameter index="2" name="Frecuencia estante superior" parameterValue="0.74979150295257568359375"/>
            <parameter index="3" name="Ganancia estante superior" parameterValue="0.5"/>
            <parameter index="4" name="Frecuencia central de banda de EC 1" parameterValue="0.00125104258768260478973388671875"/>
            <parameter index="5" name="Valor Q de banda de EC 1" parameterValue="0.000199989997781813144683837890625"/>
            <parameter index="6" name="Ganancia de banda de EC 1" parameterValue="0.5"/>
            <parameter index="7" name="Activación de banda de EC 1" parameterValue="1"/>
            <parameter index="8" name="Frecuencia central de banda de EC 2" parameterValue="0.0075062550604343414306640625"/>
            <parameter index="9" name="Valor Q de banda de EC 2" parameterValue="0.000199989997781813144683837890625"/>
            <parameter index="10" name="Ganancia de banda de EC 2" parameterValue="0.5"/>
            <parameter index="11" name="Activación de banda de EC 2" parameterValue="1"/>
            <parameter index="12" name="Frecuencia central de banda de EC 3" parameterValue="0.0325271077454090118408203125"/>
            <parameter index="13" name="Valor Q de banda de EC 3" parameterValue="0.000199989997781813144683837890625"/>
            <parameter index="14" name="Ganancia de banda de EC 3" parameterValue="0.5"/>
            <parameter index="15" name="Activación de banda de EC 3" parameterValue="1"/>
            <parameter index="16" name="Frecuencia central de banda de EC 4" parameterValue="0.13261051476001739501953125"/>
            <parameter index="17" name="Valor Q de banda de EC 4" parameterValue="0.000199989997781813144683837890625"/>
            <parameter index="18" name="Ganancia de banda de EC 4" parameterValue="0.5"/>
            <parameter index="19" name="Activación de banda de EC 4" parameterValue="1"/>
            <parameter index="20" name="Frecuencia central de banda de EC 5" parameterValue="0.532944142818450927734375"/>
            <parameter index="21" name="Valor Q de banda de EC 5" parameterValue="0.000199989997781813144683837890625"/>
            <parameter index="22" name="Ganancia de banda de EC 5" parameterValue="0.5"/>
            <parameter index="23" name="Activación de banda de EC 5" parameterValue="1"/>
            <parameter index="24" name="Ganancia maestra" parameterValue="0.666666686534881591796875"/>
            <parameter index="25" name="Constant Q" parameterValue="1"/>
            <parameter index="26" name="Orden de filtro de estante inferior" parameterValue="0"/>
            <parameter index="27" name="Orden de filtro de estante superior" parameterValue="0"/>
            <parameter index="28" name="Modo ultrasilencioso" parameterValue="0"/>
            <parameter index="29" name="Activar estante inferior" parameterValue="1"/>
            <parameter index="30" name="Activar estante superior" parameterValue="1"/>
            <parameter index="31" name="Velocidad de muestreo original" parameterValue="0.25"/>
            <parameter index="32" name="Ancho de banda de EC 1" parameterValue="0.002499990165233612060546875"/>
            <parameter index="33" name="Ancho de banda de EC 2" parameterValue="0.0099999904632568359375"/>
            <parameter index="34" name="Ancho de banda de EC 3" parameterValue="0.0399999916553497314453125"/>
            <parameter index="35" name="Ancho de banda de EC 4" parameterValue="0.15999998152256011962890625"/>
            <parameter index="36" name="Ancho de banda de EC 5" parameterValue="0.63999998569488525390625"/>
            <parameter index="37" name="Activación de filtro de pase alto" parameterValue="0"/>
            <parameter index="38" name="Frecuencia de límite de paso alto" parameterValue="0"/>
            <parameter index="39" name="Pendiente de paso alto" parameterValue="0.4000000059604644775390625"/>
            <parameter index="40" name="Activación de filtro de pase bajo" parameterValue="0"/>
            <parameter index="41" name="Frecuencia de límite de paso bajo" parameterValue="0.833194315433502197265625"/>
            <parameter index="42" name="Pendiente de paso bajo" parameterValue="0.4000000059604644775390625"/>
            <parameter index="43" name="Derivar" parameterValue="0"/>
            <parameter index="44" name="Rango de gráfico bajo" parameterValue="1"/>
          </component>
        </trackAudioParameters>
        <editParameter parameterIndex="0" slotIndex="4294967280"/>
      </masterTrack>
    </tracks>
    <sessionState ctiPosition="0" smpteStart="0">
      <selectionState selectionDuration="0" selectionStart="0"/>
      <viewState horizontalViewDuration="1440000" horizontalViewStart="0" trackControlsWidth="224" verticalScrollOffset="0"/>
      <timeFormatState beatsPerBar="4" beatsPerMinute="120" customFrameRate="12" linkToDefaultTimeSettings="true" noteLength="4" subdivisions="16" timeCodeDropFrame="false" timeCodeFrameRate="30" timeCodeNTSC="false" timeFormat="timeFormatDecimal"/>
      <mixingOptionState defaultPanModeLogarithmic="false" panPower="-3" playOverlappingClips="false"/>
    </sessionState>
    <xmpMetadata><![CDATA[<?xpacket begin="﻿" id="W5M0MpCehiHzreSzNTczkc9d"?>
<x:xmpmeta xmlns:x="adobe:ns:meta/" x:xmptk="Adobe XMP Core 6.0-c003 79.164527, 2020/10/15-17:48:32        ">
   <rdf:RDF xmlns:rdf="http://www.w3.org/1999/02/22-rdf-syntax-ns#">
      <rdf:Description rdf:about=""
            xmlns:xmp="http://ns.adobe.com/xap/1.0/"
            xmlns:xmpMM="http://ns.adobe.com/xap/1.0/mm/"
            xmlns:stEvt="http://ns.adobe.com/xap/1.0/sType/ResourceEvent#"
            xmlns:stRef="http://ns.adobe.com/xap/1.0/sType/ResourceRef#"
            xmlns:dc="http://purl.org/dc/elements/1.1/"
            xmlns:xmpDM="http://ns.adobe.com/xmp/1.0/DynamicMedia/">
         <xmp:CreatorTool>Adobe Audition 13.0 (Windows)</xmp:CreatorTool>
         <xmp:CreateDate>2021-03-16T10:48:04+01:00</xmp:CreateDate>
         <xmp:MetadataDate>2021-03-16T10:49:52+01:00</xmp:MetadataDate>
         <xmp:ModifyDate>2021-03-16T10:49:52+01:00</xmp:ModifyDate>
         <xmpMM:InstanceID>xmp.iid:fc2c9eab-db06-b84e-a1ee-bc331d39379c</xmpMM:InstanceID>
         <xmpMM:DocumentID>xmp.did:fc2c9eab-db06-b84e-a1ee-bc331d39379c</xmpMM:DocumentID>
         <xmpMM:OriginalDocumentID>xmp.did:ba9f9a98-581f-9749-a34a-20698e819b28</xmpMM:OriginalDocumentID>
         <xmpMM:History>
            <rdf:Seq>
               <rdf:li rdf:parseType="Resource">
                  <stEvt:action>saved</stEvt:action>
                  <stEvt:instanceID>xmp.iid:ba9f9a98-581f-9749-a34a-20698e819b28</stEvt:instanceID>
                  <stEvt:when>2021-03-16T10:48:04+01:00</stEvt:when>
                  <stEvt:softwareAgent>Adobe Audition 13.0 (Windows)</stEvt:softwareAgent>
                  <stEvt:changed>/metadata</stEvt:changed>
               </rdf:li>
               <rdf:li rdf:parseType="Resource">
                  <stEvt:action>saved</stEvt:action>
                  <stEvt:instanceID>xmp.iid:43f61543-328c-b748-b504-fabc74158bc7</stEvt:instanceID>
                  <stEvt:when>2021-03-16T10:48:11+01:00</stEvt:when>
                  <stEvt:softwareAgent>Adobe Audition 13.0 (Windows)</stEvt:softwareAgent>
                  <stEvt:changed>/metadata</stEvt:changed>
               </rdf:li>
               <rdf:li rdf:parseType="Resource">
                  <stEvt:action>saved</stEvt:action>
                  <stEvt:instanceID>xmp.iid:26a6557d-ef3c-514e-8894-321e9007a59d</stEvt:instanceID>
                  <stEvt:when>2021-03-16T10:48:11+01:00</stEvt:when>
                  <stEvt:softwareAgent>Adobe Audition 13.0 (Windows)</stEvt:softwareAgent>
                  <stEvt:changed>/</stEvt:changed>
               </rdf:li>
               <rdf:li rdf:parseType="Resource">
                  <stEvt:action>saved</stEvt:action>
                  <stEvt:instanceID>xmp.iid:869cddd6-572d-e64f-9fe6-48493367ab1f</stEvt:instanceID>
                  <stEvt:when>2021-03-16T10:49:52+01:00</stEvt:when>
                  <stEvt:softwareAgent>Adobe Audition 13.0 (Windows)</stEvt:softwareAgent>
                  <stEvt:changed>/metadata</stEvt:changed>
               </rdf:li>
               <rdf:li rdf:parseType="Resource">
                  <stEvt:action>saved</stEvt:action>
                  <stEvt:instanceID>xmp.iid:fc2c9eab-db06-b84e-a1ee-bc331d39379c</stEvt:instanceID>
                  <stEvt:when>2021-03-16T10:49:52+01:00</stEvt:when>
                  <stEvt:softwareAgent>Adobe Audition 13.0 (Windows)</stEvt:softwareAgent>
                  <stEvt:changed>/</stEvt:changed>
               </rdf:li>
            </rdf:Seq>
         </xmpMM:History>
         <xmpMM:DerivedFrom rdf:parseType="Resource">
            <stRef:instanceID>xmp.iid:869cddd6-572d-e64f-9fe6-48493367ab1f</stRef:instanceID>
            <stRef:documentID>xmp.did:ba9f9a98-581f-9749-a34a-20698e819b28</stRef:documentID>
            <stRef:originalDocumentID>xmp.did:ba9f9a98-581f-9749-a34a-20698e819b28</stRef:originalDocumentID>
         </xmpMM:DerivedFrom>
         <dc:format>application/xml</dc:format>
         <xmpDM:Tracks>
            <rdf:Bag>
               <rdf:li rdf:parseType="Resource">
                  <xmpDM:trackName>CuePoint Markers</xmpDM:trackName>
                  <xmpDM:trackType>Cue</xmpDM:trackType>
                  <xmpDM:frameRate>f48000</xmpDM:frameRate>
               </rdf:li>
               <rdf:li rdf:parseType="Resource">
                  <xmpDM:trackName>CD Track Markers</xmpDM:trackName>
                  <xmpDM:trackType>Track</xmpDM:trackType>
                  <xmpDM:frameRate>f48000</xmpDM:frameRate>
               </rdf:li>
               <rdf:li rdf:parseType="Resource">
                  <xmpDM:trackName>Subclip Markers</xmpDM:trackName>
                  <xmpDM:trackType>InOut</xmpDM:trackType>
                  <xmpDM:frameRate>f48000</xmpDM:frameRate>
               </rdf:li>
            </rdf:Bag>
         </xmpDM:Tracks>
      </rdf:Description>
   </rdf:RDF>
</x:xmpmeta>
                                                                                                    
                                                                                                    
                                                                                                    
                                                                                                    
                                                                                                    
                                                                                                    
                                                                                                    
                                                                                                    
                                                                                                    
                                                                                                    
                                                                                                    
                                                                                                    
                                                                                                    
                                                                                                    
                                                                                                    
                                                                                                    
                                                                                                    
                                                                                                    
                                                                                                    
                                                                                                    
                           
<?xpacket end="w"?>]]></xmpMetadata>
    <clipGroups/>
    <metronome enabled="false" pattern="downBeat subdivision subdivision subdivision " soundSet="sticks">
      <metronomeTrack automationLaneOpenState="false" id="40000" index="0" select="false" visible="false">
        <trackParameters trackHeight="77" trackHue="-1" trackMinimized="false">
          <name>Metrónomo</name>
        </trackParameters>
        <trackAudioParameters audioChannelType="mono" automationMode="1" monitoring="false" recordArmed="false" solo="false" soloSafe="true">
          <trackOutput outputID="10000" type="trackID"/>
          <trackInput inputID="-1"/>
          <component componentGuid="44b8aa71-7640-4ea0-abc8-6276c96eb720" componentID="Audition.Fader" id="trackFader" name="volume" powered="true">
            <parameter index="0" name="volume" parameterValue="0.50118720531463623046875"/>
            <parameter index="1" name="static gain" parameterValue="1"/>
          </component>
          <component componentGuid="671dd995-3e97-4021-823a-beb2b06ac5a8" componentID="Audition.Mute" id="trackMute" name="Mute" powered="true">
            <parameter index="0" parameterValue="0"/>
            <parameter index="1" name="mute" parameterValue="0"/>
          </component>
          <component componentGuid="7f33ceb7-2589-402d-b73d-0803186d2317" componentID="Audition.StereoPanner" id="trackPan" name="StereoPanner" powered="true">
            <parameter index="0" name="Panorámica" parameterValue="0"/>
          </component>
          <component componentGuid="6a81e22c-c19f-453a-8e30-827a1080e77e" componentID="Audition.EQ" id="trackEQ" name="EQ" powered="false">
            <parameter index="0" name="Frecuencia estante inferior" parameterValue="0.000834028352983295917510986328125"/>
            <parameter index="1" name="Ganancia estante inferior" parameterValue="0.5"/>
            <parameter index="2" name="Frecuencia estante superior" parameterValue="0.74979150295257568359375"/>
            <parameter index="3" name="Ganancia estante superior" parameterValue="0.5"/>
            <parameter index="4" name="Frecuencia central de banda de EC 1" parameterValue="0.00125104258768260478973388671875"/>
            <parameter index="5" name="Valor Q de banda de EC 1" parameterValue="0.000199989997781813144683837890625"/>
            <parameter index="6" name="Ganancia de banda de EC 1" parameterValue="0.5"/>
            <parameter index="7" name="Activación de banda de EC 1" parameterValue="1"/>
            <parameter index="8" name="Frecuencia central de banda de EC 2" parameterValue="0.0075062550604343414306640625"/>
            <parameter index="9" name="Valor Q de banda de EC 2" parameterValue="0.000199989997781813144683837890625"/>
            <parameter index="10" name="Ganancia de banda de EC 2" parameterValue="0.5"/>
            <parameter index="11" name="Activación de banda de EC 2" parameterValue="1"/>
            <parameter index="12" name="Frecuencia central de banda de EC 3" parameterValue="0.0325271077454090118408203125"/>
            <parameter index="13" name="Valor Q de banda de EC 3" parameterValue="0.000199989997781813144683837890625"/>
            <parameter index="14" name="Ganancia de banda de EC 3" parameterValue="0.5"/>
            <parameter index="15" name="Activación de banda de EC 3" parameterValue="1"/>
            <parameter index="16" name="Frecuencia central de banda de EC 4" parameterValue="0.13261051476001739501953125"/>
            <parameter index="17" name="Valor Q de banda de EC 4" parameterValue="0.000199989997781813144683837890625"/>
            <parameter index="18" name="Ganancia de banda de EC 4" parameterValue="0.5"/>
            <parameter index="19" name="Activación de banda de EC 4" parameterValue="1"/>
            <parameter index="20" name="Frecuencia central de banda de EC 5" parameterValue="0.532944142818450927734375"/>
            <parameter index="21" name="Valor Q de banda de EC 5" parameterValue="0.000199989997781813144683837890625"/>
            <parameter index="22" name="Ganancia de banda de EC 5" parameterValue="0.5"/>
            <parameter index="23" name="Activación de banda de EC 5" parameterValue="1"/>
            <parameter index="24" name="Ganancia maestra" parameterValue="0.666666686534881591796875"/>
            <parameter index="25" name="Constant Q" parameterValue="1"/>
            <parameter index="26" name="Orden de filtro de estante inferior" parameterValue="0"/>
            <parameter index="27" name="Orden de filtro de estante superior" parameterValue="0"/>
            <parameter index="28" name="Modo ultrasilencioso" parameterValue="0"/>
            <parameter index="29" name="Activar estante inferior" parameterValue="1"/>
            <parameter index="30" name="Activar estante superior" parameterValue="1"/>
            <parameter index="31" name="Velocidad de muestreo original" parameterValue="0.25"/>
            <parameter index="32" name="Ancho de banda de EC 1" parameterValue="0.002499990165233612060546875"/>
            <parameter index="33" name="Ancho de banda de EC 2" parameterValue="0.0099999904632568359375"/>
            <parameter index="34" name="Ancho de banda de EC 3" parameterValue="0.0399999916553497314453125"/>
            <parameter index="35" name="Ancho de banda de EC 4" parameterValue="0.15999998152256011962890625"/>
            <parameter index="36" name="Ancho de banda de EC 5" parameterValue="0.63999998569488525390625"/>
            <parameter index="37" name="Activación de filtro de pase alto" parameterValue="0"/>
            <parameter index="38" name="Frecuencia de límite de paso alto" parameterValue="0"/>
            <parameter index="39" name="Pendiente de paso alto" parameterValue="0.4000000059604644775390625"/>
            <parameter index="40" name="Activación de filtro de pase bajo" parameterValue="0"/>
            <parameter index="41" name="Frecuencia de límite de paso bajo" parameterValue="0.833194315433502197265625"/>
            <parameter index="42" name="Pendiente de paso bajo" parameterValue="0.4000000059604644775390625"/>
            <parameter index="43" name="Derivar" parameterValue="0"/>
            <parameter index="44" name="Rango de gráfico bajo" parameterValue="1"/>
          </component>
        </trackAudioParameters>
        <editParameter parameterIndex="0" slotIndex="4294967280"/>
      </metronomeTrack>
    </metronome>
    <properties>
      <property key="EssentialSoundConfigurations">[{"Guid":"a8b40e3e-13e7-4c1f-b382-96058f1f691d","Name":"$$$/app/Presets/DefaultPresetName=(Default)","PresetData":{"ModeID":"ambience","Models":{"model_ducking":{},"model_loudness":{"DefaultLoudness":{"type":"float","value":-30},"LoudnessStandard":{"type":"std::uint32_t","value":0},"MaxLoudness":{"type":"float","value":-12},"MinLoudness":{"type":"float","value":-42}},"model_soundeffects":{"ReverbPresets":{"type":"tree::any","value":{"$$$/app/Presets/EssentialSound/ReverbPreset/LargeRoomAmbience=Large Room Ambience":{"type":"array::float","value":[0.051507499068975449,0.32432401180267334,0.29292899370193481,0.30000001192092896,0.20000000298023224,0,0.14285700023174286,0.40000000596046448,0.5,0.69999998807907104,0.30000001192092896,0.25125628709793091,0.03125]},"$$$/app/Presets/EssentialSound/ReverbPreset/OutsideAmbience=Outside Ambience":{"type":"array::float","value":[0.091708503663539886,0.043893899768590927,1,0.5,0.20000000298023224,0.80000001192092896,0.18367299437522888,1,0.5,0,0.80000001192092896,0.25125628709793091,0.03125]},"$$$/app/Presets/EssentialSound/ReverbPreset/RoomAmbience=Room Ambience":{"type":"array::float","value":[0.057788901031017303,0.44944900274276733,0.49494898319244385,0.89999997615814209,0.10000000149011612,0.15000000596046448,0.081632703542709351,0.40000000596046448,0.5,0.80000001192092896,0.20000000298023224,0.25125628709793091,0.03125]},"$$$/app/Presets/EssentialSound/ReverbPreset/WindEffect=Wind Effect":{"type":"array::float","value":[0.19597999751567841,0.6896899938583374,0.69696998596191406,0.25,0.5,0.5,0.23469400405883789,0.51999998092651367,0.5,0.75,0.25,0.25125628709793091,0.03125]}}}},"model_stereowidth":{},"model_volume":{"MaxGain":{"type":"float","value":15},"MinGain":{"type":"float","value":-60}}},"Version":1},"Type":"1c19ca71-c24c-49cd-8dd5-2cc46018507a","Version":1},{"Guid":"58dc27a8-6a2a-480c-bd0c-4b45fff346a6","Name":"$$$/app/Presets/DefaultPresetName=(Default)","PresetData":{"ModeID":"dialog","Models":{"model_clarity":{"EQPresets":{"type":"tree::any","value":{"$$$/app/Presets/EssentialSound/EQPreset/BackgroundVoice=Background Voice":{"type":"array::float","value":[0.12099699676036835,0.5,0.39240506291389465,0,0.5,0.5,0.5,0.5,0.5,0.47827938199043274,0.45772689580917358,0.45778733491897583,0.47946760058403015,0.5,0]},"$$$/app/Presets/EssentialSound/EQPreset/Intercom=Intercom":{"type":"array::float","value":[0.19432899355888367,0.5,1,0,0.071499988436698914,0.071499988436698914,0.071499988436698914,0.40238627791404724,0.48571401834487915,0.5,0.55155748128890991,0.59602576494216919,0.22246670722961426,0.071499988436698914,0]},"$$$/app/Presets/EssentialSound/EQPreset/LockedInTheTrunk=Locked in the Trunk":{"type":"array::float","value":[0.12099699676036835,0.5,0.79746836423873901,0,0.5,0.5,0.5,0.5,0.5,0.32846158742904663,0.15721426904201508,0.15721426904201508,0.15721426904201508,0.15721426904201508,0]},"$$$/app/Presets/EssentialSound/EQPreset/OldRadio=Old Radio":{"type":"array::float","value":[0.12099699676036835,0.5,0.79746836423873901,0,0.15721426904201508,0.15721426904201508,0.15721426904201508,0.28442040085792542,0.48315632343292236,0.36498492956161499,0.52853888273239136,0.43511500954627991,0.27154684066772461,0.15721426904201508,0]},"$$$/app/Presets/EssentialSound/EQPreset/OnTheTelephone=On the Telephone":{"type":"array::float","value":[0.12099699676036835,0.5,0.39240506291389465,0,0.32864287495613098,0.32864287495613098,0.32864287495613098,0.32864287495613098,0.48571401834487915,0.53071397542953491,0.53071397542953491,0.48357096314430237,0.32864287495613098,0.32864287495613098,0]},"$$$/app/Presets/EssentialSound/EQPreset/OutsideOfTheRoom=Outside of the Room":{"type":"array::float","value":[0.12099699676036835,0.5,0.79746836423873901,0,0.42539370059967041,0.47865453362464905,0.5,0.5,0.48571401834487915,0.40073278546333313,0.25656309723854065,0.15721426904201508,0.15721426904201508,0.15721426904201508,0]},"$$$/app/Presets/EssentialSound/EQPreset/PodcastVoice=Podcast Voice":{"type":"array::float","value":[0.12099699676036835,0.5,0.39240506291389465,0,0.5,0.5,0.5,0.51789408922195435,0.50770342350006104,0.5,0.51789408922195435,0.528114914894104,0.5102812647819519,0.5,0]},"$$$/app/Presets/EssentialSound/EQPreset/SubtleBoostFemale=Subtle Boost (Female)":{"type":"array::float","value":[0.096553400158882141,0.5,0.29113924503326416,0,0.5,0.5,0.5,0.5,0.5,0.51933407783508301,0.54642897844314575,0.52706766128540039,0.5,0.5,0]},"$$$/app/Presets/EssentialSound/EQPreset/SubtleBoostMale=Subtle Boost (Male)":{"type":"array::float","value":[0.096553400158882141,0.5,0.29113924503326416,0,0.5,0.5,0.5,0.5,0.5,0.5135338306427002,0.54642897844314575,0.51933407783508301,0.5,0.5,0]},"$$$/app/Presets/EssentialSound/EQPreset/ThatPublicRadioSound=That Public Radio Sound":{"type":"array::float","value":[0.12099699676036835,0.5,0.79746836423873901,0,0.15721426904201508,0.15721426904201508,0.15721426904201508,0.36334344744682312,0.49468311667442322,0.5,0.5,0.5,0.5,0.5,0]},"$$$/app/Presets/EssentialSound/EQPreset/VocalPresence=Vocal Presence":{"type":"array::float","value":[0.096553400158882141,0.5,0.32489451766014099,0,0.3572143018245697,0.3572143018245697,0.46428570151329041,0.47857141494750977,0.4763694703578949,0.49570354819297791,0.55924957990646362,0.56523394584655762,0.50859290361404419,0.46992480754852295,0]}}}},"model_loudness":{"DefaultLoudness":{"type":"float","value":-23},"LoudnessStandard":{"type":"std::uint32_t","value":0},"MaxLoudness":{"type":"float","value":-12},"MinLoudness":{"type":"float","value":-42}},"model_restoration":{"ReduceNoiseMaxSetting":{"type":"array::float","value":[1,0,0,0,0]},"ReduceNoiseMinSetting":{"type":"array::float","value":[0,0,0,0,0]},"ReduceReverbMaxSetting":{"type":"array::float","value":[1,0,0,0,0]},"ReduceReverbMinSetting":{"type":"array::float","value":[0,0,0,0,0]},"ReduceRumbleMaxSetting":{"type":"array::float","value":[1,0.017696592956781387,0.375,0,0,0.00083333335351198912,1,0,1,0.0390625,0.00083408987848088145,0,0.0041666668839752674,0.00022554649331141263,0.0046875001862645149,0.75,0.0052083334885537624,0.75,1,0.75,0.0040520834736526012,0.75,0.0042629167437553406,0.00022554649331141263,0.0064883334562182426,0.00022554649331141263,0.006866666954010725,0.75,0.0071704164147377014,0.00022554649331141263,0.01041458360850811,0.00022554649331141263,0.010900000110268593,0.75,0.011407917365431786,0.00022554649331141263,0.015606249682605267,0.00022554649331141263,0.016333334147930145,0.75,0.017094582319259644,0.00022554649331141263,0.026243748143315315,0.00022554649331141263,0.0274666678160429,0.75,0.028746666386723518,0.00022554649331141263,0.041658751666545868,0.00022554649331141263,0.043600000441074371,0.75,0.045631669461727142,0.00022554649331141263,0.062424581497907639,0.00022554649331141263,0.065333336591720581,0.75,0.068377502262592316,0.00022554649331141263,0.10497540980577469,0.00022554649331141263,0.1098666712641716,0.75,0.11498583108186722,0.00022554649331141263,0.16663584113121033,0.00022554649331141263,0.17440000176429749,0.75,0.18252624571323395,0.00022554649331141263,0.91874998807907104,0.00022554649331141263,1,0.00022554649331141263,0,0,0,0,0,0,0,0,0,0,0,0,0,0,0,0,0,0,0,0,0,0,0,0,0,0,0,0,0,0,0,0,0,0,0,0,0,0,0,0,0,0,0,0,0,0,0,0,0,0,0,0,0,0,0,0,0,0,0,0,0,0,0,0,0,0,0,0,0,0,0,0,0,0,0,0,0,0,0,0,0,0,0,0,0,0,0,0,0,0,0,0,0,0,0,0,0,0,0,0,0,0,0,0,0,0,0,0,0,0,0,0,0,0,0,0,0,0,0,0,0,0,0,0,0,0,0,0,0,0,0,0,0,0,0,0,0,0,0,0,0,0,0,0,0,0,0,0,0,0,0,0,0,0,0,0,0,0,0,0,0,0,0,0,0,0,0,0,0,0,0,0,0,0,0,0,0,0,0,0,0,0,0,0,0,0,0,0,0,0]},"ReduceRumbleMinSetting":{"type":"array::float","value":[1,0.017696592956781387,0.375,0,0,0.00083333335351198912,1,0,1,0.0390625,0.00083408987848088145,0.75,0.0041666668839752674,0.75,0.0046875001862645149,0.75,0.0052083334885537624,0.75,1,0.75,0.91874998807907104,0.61237245798110962,1,0.61237245798110962,0,0,0,0,0,0,0,0,0,0,0,0,0,0,0,0,0,0,0,0,0,0,0,0,0,0,0,0,0,0,0,0,0,0,0,0,0,0,0,0,0,0,0,0,0,0,0,0,0,0,0,0,0,0,0,0,0,0,0,0,0,0,0,0,0,0,0,0,0,0,0,0,0,0,0,0,0,0,0,0,0,0,0,0,0,0,0,0,0,0,0,0,0,0,0,0,0,0,0,0,0,0,0,0,0,0,0,0,0,0,0,0,0,0,0,0,0,0,0,0,0,0,0,0,0,0,0,0,0,0,0,0,0,0,0,0,0,0,0,0,0,0,0,0,0,0,0,0,0,0,0,0,0,0,0,0,0,0,0,0,0,0,0,0,0,0,0,0,0,0,0,0,0,0,0,0,0,0,0,0,0,0,0,0,0,0,0,0,0,0,0,0,0,0,0,0,0,0,0,0,0,0,0,0,0,0,0,0,0,0,0,0,0,0,0,0,0,0,0,0,0,0,0,0,0,0,0,0,0,0,0,0,0,0,0,0,0,0,0,0,0,0]},"ReduceSibilanceMaxSetting":{"type":"array::float","value":[0.5,0.19983997941017151,0.18367347121238708,0.26086956262588501,0.52702701091766357,0,1,0,0,0,0,0.75,1,1,0.40000000596046448]},"ReduceSibilanceMinSetting":{"type":"array::float","value":[0.875,0.19983997941017151,0.18367347121238708,0.19130434095859528,0.25675675272941589,0,1,0,0,0,0,0.75,1,1,0.40000000596046448]}},"model_soundeffects":{"ReverbPresets":{"type":"tree::any","value":{"$$$/app/Presets/EssentialSound/ReverbPreset/Auditorium=Auditorium":{"type":"array::float","value":[0.013047545216977596,0.15895412862300873,1,0.89999997615814209,0,0.52007436752319336,0.41663265228271484,0.46000000834465027,0.5,0.73000001907348633,0.15999999642372131,0.75376886129379272,0.03125]},"$$$/app/Presets/EssentialSound/ReverbPreset/Church=Church":{"type":"array::float","value":[0.032663315534591675,0.39939939975738525,0.79797977209091187,0.25,0.5,0.5,0.2297959178686142,0.72000002861022949,0.5,0.62999999523162842,0.87999999523162842,0.25125628709793091,0.03125]},"$$$/app/Presets/EssentialSound/ReverbPreset/LargeReflectiveRoom=Large Reflective Room":{"type":"array::float","value":[0.0074449013918638229,0.098988421261310577,0.79890537261962891,0.89999997615814209,0.10000000149011612,0.40110713243484497,0.060284845530986786,0.27522978186607361,0.5,0.73000001907348633,0.31999999284744263,0.25125628709793091,0.03125]},"$$$/app/Presets/EssentialSound/ReverbPreset/OutsideTheClub=Outside the Club":{"type":"array::float","value":[0.020615793764591217,0.050136558711528778,0.69696998596191406,0.25,0.094355784356594086,0.22242647409439087,0.1071428582072258,0.2800000011920929,0.5,0.73000001907348633,0.46000000834465027,0.25125628709793091,0.03125]},"$$$/app/Presets/EssentialSound/ReverbPreset/SmallDryRoom=Small Dry Room":{"type":"array::float","value":[0.24623115360736847,0.69975000619888306,0.29292899370193481,0.40000000596046448,0.20000000298023224,0.40000000596046448,0.039285715669393539,0.10000000149011612,0.5,1,0.5,0.75376886129379272,0.03125]},"$$$/app/Presets/EssentialSound/ReverbPreset/ThickenVoice=Thicken Voice":{"type":"array::float","value":[0.19597999751567841,0.23931467533111572,0.69696998596191406,0.25,0.5,0.53999996185302734,0.020408162847161293,0.20945435762405396,0.5,1,0.34999999403953552,0.25125628709793091,0.03125]},"$$$/app/Presets/EssentialSound/ReverbPreset/WarmRoom=Warm Room":{"type":"array::float","value":[0.020100502297282219,0.074074074625968933,0.49494948983192444,0.40000000596046448,0.74960309267044067,0.40000000596046448,0.1239795908331871,0.67000001668930054,0.5,0.85000002384185791,0.56000000238418579,0.25125628709793091,0.03125]},"$$$/app/Presets/EssentialSound/ReverbPreset/WarmVoice=Warm Voice":{"type":"array::float","value":[0.19597989320755005,0.89989989995956421,0,0.40000000596046448,0.20000000298023224,0.40000000596046448,0.10204081982374191,0.090000003576278687,0.5,1,0.30000001192092896,0.25125628709793091,0.03125]}}}},"model_volume":{"MaxGain":{"type":"float","value":15},"MinGain":{"type":"float","value":-60}}},"Version":1},"Type":"1c19ca71-c24c-49cd-8dd5-2cc46018507a","Version":1},{"Guid":"353811fa-4179-435e-8e5e-23028ba15a7a","Name":"$$$/app/Presets/DefaultPresetName=(Default)","PresetData":{"ModeID":"generic","Models":{"model_volume":{"MaxGain":{"type":"float","value":15},"MinGain":{"type":"float","value":-60}}},"Version":1},"Type":"1c19ca71-c24c-49cd-8dd5-2cc46018507a","Version":1},{"Guid":"31ba96a6-5d3e-4d89-b1e1-1dbe3c055d0c","Name":"$$$/app/Presets/DefaultPresetName=(Default)","PresetData":{"ModeID":"music","Models":{"model_ducking":{},"model_duration":{},"model_loudness":{"DefaultLoudness":{"type":"float","value":-25},"LoudnessStandard":{"type":"std::uint32_t","value":0},"MaxLoudness":{"type":"float","value":-12},"MinLoudness":{"type":"float","value":-42}},"model_volume":{"MaxGain":{"type":"float","value":15},"MinGain":{"type":"float","value":-60}}},"Version":1},"Type":"1c19ca71-c24c-49cd-8dd5-2cc46018507a","Version":1},{"Guid":"cea63332-1adc-44a9-a6eb-5490f965859b","Name":"$$$/app/Presets/DefaultPresetName=(Default)","PresetData":{"ModeID":"sfx","Models":{"model_loudness":{"DefaultLoudness":{"type":"float","value":-21},"LoudnessStandard":{"type":"std::uint32_t","value":0},"MaxLoudness":{"type":"float","value":-12},"MinLoudness":{"type":"float","value":-42}},"model_pan":{},"model_soundeffects":{"ReverbPresets":{"type":"tree::any","value":{"$$$/app/Presets/EssentialSound/ReverbPreset/HeavyReverb=Heavy Reverb":{"type":"array::float","value":[0.13316600024700165,0.29929900169372559,1,0.95999997854232788,0.85000002384185791,0.5,0.51530599594116211,0.30000001192092896,0.5,0.5,0.5,0.25125628709793091,0.0625]},"$$$/app/Presets/EssentialSound/ReverbPreset/LightReverb=Light Reverb":{"type":"array::float","value":[0.095477402210235596,0.29929900169372559,0.090909101068973541,1,1,0.80000001192092896,0.22449000179767609,0.60000002384185791,0.5,0.69999998807907104,0.30000001192092896,0.25125628709793091,0.0625]},"$$$/app/Presets/EssentialSound/ReverbPreset/OutsideReverb=Outside Reverb":{"type":"array::float","value":[0.091708503663539886,0.043893899768590927,1,0.5,0.20000000298023224,0.80000001192092896,0.18367299437522888,1,0.5,0,0.80000001192092896,0.25125628709793091,0.0625]},"$$$/app/Presets/EssentialSound/ReverbPreset/RoomReverb=Room Reverb":{"type":"array::float","value":[0.057788901031017303,0.44944900274276733,0.49494898319244385,0.89999997615814209,0.10000000149011612,0.15000000596046448,0.081632703542709351,0.40000000596046448,0.5,0.80000001192092896,0.20000000298023224,0.25125628709793091,0.0625]}}}},"model_volume":{"MaxGain":{"type":"float","value":15},"MinGain":{"type":"float","value":-60}}},"Version":1},"Type":"1c19ca71-c24c-49cd-8dd5-2cc46018507a","Version":1}]</property>
    </properties>
  </session>

  <files>
    <file absolutePath="E:\Multimedia\Audition\PR07_Stopmotion\sesion3\Archivos importados\Secuencia 02.mp4" id="0" mediaHandler="ImporterHost" recoveryID="92d43c56-d644-4c3c-84ac-e4a38f0cac6b" relativePath="../../../../../../Multimedia/Audition/PR07_Stopmotion/sesion3/Archivos importados/Secuencia 02.mp4"/>
    <file absolutePath="E:\Multimedia\Audition\PR07_Stopmotion\sesion3\Archivos importados\sm64_stomp 48000 1.wav" id="1" importerPrivateSettings="Compression:0:0;LargeFileSupport:0:0;SampleType:0:40;" mediaHandler="AmioWav" recoveryID="0437fea4-d08f-4464-8a47-8151328ec711" relativePath="../../../../../../Multimedia/Audition/PR07_Stopmotion/sesion3/Archivos importados/sm64_stomp 48000 1.wav"/>
    <file absolutePath="E:\Multimedia\Audition\PR07_Stopmotion\sesion3\Archivos importados\WATRBubl_Boiling water (ID 0149)_BSB 48000 1.wav" id="2" importerPrivateSettings="Compression:0:0;LargeFileSupport:0:0;SampleType:0:40;" mediaHandler="AmioWav" recoveryID="728f9ef7-fbbc-4e87-98dc-b52cb457eff0" relativePath="../../../../../../Multimedia/Audition/PR07_Stopmotion/sesion3/Archivos importados/WATRBubl_Boiling water (ID 0149)_BSB 48000 1.wav"/>
    <file absolutePath="E:\Multimedia\Audition\PR07_Stopmotion\sesion3\Archivos importados\Explosion+1 48000 1.wav" id="3" importerPrivateSettings="Compression:0:0;LargeFileSupport:0:0;SampleType:0:40;" mediaHandler="AmioWav" recoveryID="141f588d-6983-4ff7-88c4-8a7f7e9d7f69" relativePath="../../../../../../Multimedia/Audition/PR07_Stopmotion/sesion3/Archivos importados/Explosion+1 48000 1.wav"/>
    <file absolutePath="E:\Multimedia\Audition\PR07_Stopmotion\sesion3\Archivos importados\Plastic-Item-Dropping-or-falling-on-floor-www.fesliyanstudios.com.mp3" id="4" importerPrivateSettings="BitsPerSecond:0:320000;CompressionQuality:0:4;CompressionType:0:0;" mediaHandler="AmioMP3" recoveryID="3f7b8769-bd99-4aae-8b37-a414948a206e" relativePath="../../../../../../Multimedia/Audition/PR07_Stopmotion/sesion3/Archivos importados/Plastic-Item-Dropping-or-falling-on-floor-www.fesliyanstudios.com.mp3"/>
  </files>

  <audioDevice inputID="" outputID="842D4D1F-E469-47E9-9CA0-DBF5F2663D32">
    <inputPort id="1" name="Entrada estéreo predeterminada"/>
    <outputPort id="1" name="Salida predeterminada"/>
    <outputPort id="2" name="[01M] BenQ LCD (NVIDIA High Definition Audio) 1"/>
    <outputPort id="3" name="[02M] BenQ LCD (NVIDIA High Definition Audio) 2"/>
    <outputPort id="4" name="Salida estéreo predeterminada"/>
    <outputPort id="5" name="[01S] BenQ LCD (NVIDIA High Definition Audio) 1"/>
    <outputPort id="6" name="Salida envolvente predeterminada"/>
  </audioDevice>

</sesx>
